<svg xmlns="http://www.w3.org/2000/svg" xmlns:xlink="http://www.w3.org/1999/xlink" viewBox="0 0 793.91 638.41"><defs><style>.cls-1{mask:url(#mask);filter:url(#luminosity-noclip-3);}.cls-2,.cls-4{mix-blend-mode:multiply;}.cls-2{fill:url(#linear-gradient);}.cls-3{mask:url(#mask-2);filter:url(#luminosity-noclip-4);}.cls-4{fill:url(#linear-gradient-2);}.cls-5{mask:url(#mask-3);}.cls-6{fill:#009688;}.cls-7{mask:url(#mask-4);}.cls-8{fill:url(#linear-gradient-3);}.cls-9{fill:#026d71;}.cls-10{fill:#165568;}.cls-11{fill:#11404e;}.cls-12{fill:url(#linear-gradient-4);}.cls-13{fill:url(#linear-gradient-5);}.cls-14{fill:url(#linear-gradient-6);}.cls-15{fill:#742051;}.cls-16{fill:#0a5769;}.cls-17{fill:#0e7998;}.cls-18{fill:url(#linear-gradient-7);}.cls-19{fill:url(#linear-gradient-8);}.cls-20{fill:url(#linear-gradient-9);}.cls-21{fill:#603e6b;}.cls-22{fill:#8e4f3a;}.cls-23{fill:#0e5466;}.cls-24{fill:#101641;}.cls-25{fill:#22758d;}.cls-26{fill:#633029;}.cls-27{fill:#0b1742;}.cls-28{fill:#2846a6;}.cls-29{fill:#6e778f;}.cls-30{fill:#0c1031;}.cls-31{fill:#6d7280;}.cls-32{fill:#1a2a63;}.cls-33{fill:#326398;}.cls-34{fill:#b3c7ff;}.cls-35{fill:#939ebf;}.cls-36{fill:#dce4ff;}.cls-37{fill:#fc7575;}.cls-38{fill:#1e3340;}.cls-39{fill:#d0dcff;}.cls-40{fill:#e3e4ff;}.cls-41{fill:#c5c6fe;}.cls-42{fill:#18287d;}.cls-43{fill:#2b374d;}.cls-44{fill:#c52c86;}.cls-45{fill:#0f1d5b;}.cls-46{fill:#fff;}.cls-47{fill:#a52176;opacity:0.73;}.cls-48{fill:#7393eb;}.cls-49{fill:#c2d5ff;}.cls-50{fill:#22346d;}.cls-51{fill:#a9c4ff;}.cls-52{fill:#1b2b80;}.cls-53{filter:url(#luminosity-noclip-2);}.cls-54{filter:url(#luminosity-noclip);}</style><filter id="luminosity-noclip" x="80.25" y="-8856.02" width="674.38" height="32766" filterUnits="userSpaceOnUse" color-interpolation-filters="sRGB"><feFlood flood-color="#fff" result="bg"/><feBlend in="SourceGraphic" in2="bg"/></filter><mask id="mask" x="80.25" y="-8856.02" width="674.38" height="32766" maskUnits="userSpaceOnUse"><g class="cls-54"/></mask><linearGradient id="linear-gradient" x1="485.37" y1="783.61" x2="348.47" y2="-43.02" gradientUnits="userSpaceOnUse"><stop offset="0" stop-color="#fff"/><stop offset="1"/></linearGradient><filter id="luminosity-noclip-2" x="698.15" y="-8856.02" width="95.77" height="32766" filterUnits="userSpaceOnUse" color-interpolation-filters="sRGB"><feFlood flood-color="#fff" result="bg"/><feBlend in="SourceGraphic" in2="bg"/></filter><mask id="mask-2" x="698.15" y="-8856.02" width="95.77" height="32766" maskUnits="userSpaceOnUse"><g class="cls-53"/></mask><linearGradient id="linear-gradient-2" x1="765.62" y1="312.75" x2="733.43" y2="118.4" xlink:href="#linear-gradient"/><filter id="luminosity-noclip-3" x="80.25" y="53.23" width="674.38" height="564.28" filterUnits="userSpaceOnUse" color-interpolation-filters="sRGB"><feFlood flood-color="#fff" result="bg"/><feBlend in="SourceGraphic" in2="bg"/></filter><mask id="mask-3" x="80.25" y="53.23" width="674.38" height="564.28" maskUnits="userSpaceOnUse"><g class="cls-1"><path class="cls-2" d="M610.51,414.46c65.39-37.88,106.57-93,106.57-154.41,0-114.22-142.56-206.82-318.42-206.82S80.25,145.83,80.25,260.05c0,94.27,97.08,173.8,229.85,198.72-20.29,15.57-31.9,33.65-31.9,52.93,0,58.44,106.65,105.81,238.21,105.81S754.62,570.14,754.62,511.7C754.62,468.11,695.27,430.67,610.51,414.46Z"/></g></mask><filter id="luminosity-noclip-4" x="698.15" y="143.94" width="95.77" height="134.38" filterUnits="userSpaceOnUse" color-interpolation-filters="sRGB"><feFlood flood-color="#fff" result="bg"/><feBlend in="SourceGraphic" in2="bg"/></filter><mask id="mask-4" x="698.15" y="143.94" width="95.77" height="134.38" maskUnits="userSpaceOnUse"><g class="cls-3"><path class="cls-4" d="M698.55,164.22s29,45.62,31.59,92.13,91.71,15.48,54.85-58.51S692.85,140.09,698.55,164.22Z"/></g></mask><linearGradient id="linear-gradient-3" x1="765.62" y1="312.75" x2="733.43" y2="118.4" gradientUnits="userSpaceOnUse"><stop offset="0" stop-color="#e9a2c9"/><stop offset="1" stop-color="#d278a1"/></linearGradient><linearGradient id="linear-gradient-4" x1="189.83" y1="273.22" x2="179.05" y2="535.53" gradientUnits="userSpaceOnUse"><stop offset="0" stop-color="#f59bf3"/><stop offset="1" stop-color="#ffaf90"/></linearGradient><linearGradient id="linear-gradient-5" y1="450.65" x2="167.89" y2="450.65" gradientUnits="userSpaceOnUse"><stop offset="0" stop-color="#c95a81"/><stop offset="1" stop-color="#b51c45"/></linearGradient><linearGradient id="linear-gradient-6" x1="191.45" y1="503.17" x2="312.73" y2="301.03" gradientUnits="userSpaceOnUse"><stop offset="0" stop-color="#ff8f62"/><stop offset="0.09" stop-color="#fe8d67"/><stop offset="1" stop-color="#f57b9b"/></linearGradient><linearGradient id="linear-gradient-7" x1="631.76" y1="280.02" x2="620.98" y2="542.32" gradientTransform="translate(1.81 -7.2) rotate(0.25)" xlink:href="#linear-gradient-4"/><linearGradient id="linear-gradient-8" x1="441.93" y1="457.44" x2="609.82" y2="457.44" gradientTransform="translate(1.81 -7.2) rotate(0.25)" xlink:href="#linear-gradient-5"/><linearGradient id="linear-gradient-9" x1="633.38" y1="509.96" x2="754.66" y2="307.82" gradientTransform="translate(1.81 -7.2) rotate(0.25)" gradientUnits="userSpaceOnUse"><stop offset="0" stop-color="#f57b9b"/><stop offset="1" stop-color="#ffbf62"/></linearGradient></defs><title>doctorc_1</title><g id="Layer_2" data-name="Layer 2"><g id="_Layer_" data-name="&lt;Layer&gt;"><g class="cls-5"><path class="cls-6" d="M610.51,414.46c65.39-37.88,106.57-93,106.57-154.41,0-114.22-142.56-206.82-318.42-206.82S80.25,145.83,80.25,260.05c0,94.27,97.08,173.8,229.85,198.72-20.29,15.57-31.9,33.65-31.9,52.93,0,58.44,106.65,105.81,238.21,105.81S754.62,570.14,754.62,511.7C754.62,468.11,695.27,430.67,610.51,414.46Z"/></g><g class="cls-7"><path class="cls-8" d="M698.55,164.22s29,45.62,31.59,92.13,91.71,15.48,54.85-58.51S692.85,140.09,698.55,164.22Z"/></g><path class="cls-9" d="M690.67,621c0,10.43-127.75,18.18-285.22,17.31s-285.07-10-285-20.47S248.2,599.7,405.66,600.57,690.73,610.61,690.67,621Z"/><path class="cls-10" d="M150.09,412.2s-12.81-51.28-43.71-65.2-31.64,24.92-11.3,54.1,73.47,62.34,73.47,62.34Z"/><path class="cls-11" d="M168.55,465.7a2.27,2.27,0,0,0,1.88-3.52L109,370.25a2.26,2.26,0,0,0-3.76,2.51l61.41,91.93A2.26,2.26,0,0,0,168.55,465.7Z"/><path class="cls-10" d="M279.74,476.29s11.87,19.78-6.78,38.42-78,5.09-78,5.09,6.45-29.16,31.64-40.69S272.4,458.77,279.74,476.29Z"/><path class="cls-12" d="M234.16,356.87c3.88-18.4-.33-35.08-13.15-44.23,15.34-30.25,10.92-63.33-15.69-67.51-26.93-4.23-60.6,12.21-52.18,55a120.25,120.25,0,0,0,3.27,13c-18.26,9.45-30.3,27.52-23.83,55.4.14.6.28,1.19.43,1.78-10.75,13.49-15.78,32.4-10.42,57.25,13.84,64.1,50.86,75.38,50.86,75.38s33.55-9.16,59.85-55C253.18,413.26,254.07,375.81,234.16,356.87Z"/><path class="cls-13" d="M167.89,530.8s-7.83-59.32-14.14-65.63c-6.55-6.55-8.48,2.79-8.48,2.79s-5.31-45.67-17.68-51.91-19.09,7.7-19.09,7.7,4.42-49.31-33.33-53.14C57.05,368.77,53,390.28,53,390.28s-24-30.2-46.54-4.31c-18.84,21.68,9.86,42,9.86,42s-22,14.13-5.9,34.21,43.37,14.53,43.37,14.53-15.45,15.57-1.18,22.77,49.05.3,49.05.3-18.29,8.34-4.38,15.35S167.89,530.8,167.89,530.8Z"/><path class="cls-11" d="M190.62,305.06a2.27,2.27,0,0,0-2.42,2.08L169,560.32a2.25,2.25,0,0,0,2.08,2.42h.17a2.26,2.26,0,0,0,2.25-2.09l19.22-253.18A2.26,2.26,0,0,0,190.62,305.06Z"/><path class="cls-11" d="M241.75,509.75l-11.92-4.05c4.77-1.73,9-3.17,11.88-4.09a2.26,2.26,0,1,0-1.38-4.31c-1.56.51-38.47,12.42-47,20.9-8.79,8.79-8,34.49-8,35.58a2.26,2.26,0,0,0,2.26,2.19h.07a2.27,2.27,0,0,0,2.19-2.34c-.23-6.88.54-26.09,6.68-32.23,3.84-3.84,15.56-9,26.57-13.21L240.3,514a2.26,2.26,0,0,0,1.45-4.28Z"/><path class="cls-11" d="M169.83,529.64c-14-23.42-49.83-55.64-79.51-80.1L91,407.19a2.26,2.26,0,0,0-2.22-2.3,2.28,2.28,0,0,0-2.3,2.23l-.61,38.76C64.3,428.3,46.92,415.46,45.24,414.23a2.26,2.26,0,1,0-2.68,3.64c.34.26,12.43,9.18,29.07,22.43H36.36a2.27,2.27,0,0,0,0,4.53H77.27c11.54,9.3,24.68,20.25,37.44,31.66l-27.07,4.92a2.26,2.26,0,0,0,.4,4.48,2.83,2.83,0,0,0,.41,0l30.49-5.55c19.85,18,38.14,36.84,47,51.65a2.26,2.26,0,1,0,3.88-2.32Z"/><path class="cls-14" d="M184.54,507s-11.1-63.21-2.18-63.21,11.11,7.45,11.11,7.45-5.28-36.17,4.52-46,16.58-7.54,16.58-7.54S195,360.43,229.64,345c16.63-7.41,27.22,3.58,27.22,3.58s13.37-36.2,42.85-18.65c24.68,14.69,3.77,42.95,3.77,42.95s16.58,13.56,7.53,37.67-27.88,20.35-27.88,20.35,11.31,15.07,0,26.37-36,6-36,6,11,3.3,0,14.31S184.54,507,184.54,507Z"/><path class="cls-11" d="M276.42,409.14l-28.75,9.17c16.89-20.38,30.78-36,31.13-36.41a2.26,2.26,0,0,0-3.38-3c-1.72,1.93-22,24.72-43.15,51.07l2.63-29.78a2.26,2.26,0,1,0-4.5-.39l-3.24,36.57c-21.52,27.18-42.58,56.6-44.85,70.25-4.59,27.61-8.38,57.81-8.41,58.11a2.25,2.25,0,0,0,2,2.52l.28,0a2.26,2.26,0,0,0,2.24-2c0-.3,3.82-30.41,8.39-57.93,2.52-15.13,31-52.55,55.59-82.61l35.43-11.3a2.26,2.26,0,1,0-1.37-4.31Z"/><rect class="cls-15" x="139.11" y="542.39" width="73.71" height="68.75"/><rect class="cls-16" x="124.9" y="528.84" width="107.75" height="5.62"/><rect class="cls-17" x="131.51" y="534.46" width="94.53" height="12.23"/><path class="cls-10" d="M592,414.34S579.44,363,548.61,349,516.85,373.73,537.07,403s73.2,62.65,73.2,62.65Z"/><path class="cls-11" d="M610.26,467.91a2.16,2.16,0,0,0,1.26-.37,2.26,2.26,0,0,0,.64-3.13l-61-92.19a2.26,2.26,0,0,0-3.77,2.49l61,92.19A2.24,2.24,0,0,0,610.26,467.91Z"/><path class="cls-10" d="M721.41,479s11.79,19.83-6.94,38.4-78,4.75-78,4.75S643,493,668.28,481.58,714.14,461.43,721.41,479Z"/><path class="cls-18" d="M676.34,359.37c3.95-18.38-.18-35.08-13-44.29,15.47-30.18,11.19-63.28-15.41-67.57-26.91-4.34-60.64,11.95-52.41,54.73a121.18,121.18,0,0,0,3.21,13c-18.29,9.37-30.41,27.39-24.06,55.3.13.6.28,1.19.42,1.78-10.81,13.43-15.92,32.33-10.66,57.2C578,493.66,615,505.08,615,505.08s33.6-9,60.09-54.69C695.12,415.84,696.17,378.39,676.34,359.37Z"/><path class="cls-19" d="M609.32,533s-7.57-59.36-13.85-65.69c-6.53-6.58-8.49,2.75-8.49,2.75s-5.12-45.69-17.46-52-19.13,7.61-19.13,7.61,4.64-49.29-33.1-53.28C499.18,370.51,495,392,495,392s-23.91-30.31-46.52-4.51c-18.94,21.59,9.67,42,9.67,42s-22.09,14.05-6,34.19,43.31,14.72,43.31,14.72-15.51,15.5-1.27,22.76,49,.51,49,.51S524.86,510,538.73,517,609.32,533,609.32,533Z"/><path class="cls-11" d="M633,307.37a2.26,2.26,0,0,0-2.43,2.08L610.3,562.54a2.26,2.26,0,0,0,2.07,2.43h.17a2.27,2.27,0,0,0,2.26-2.08l20.3-253.1A2.26,2.26,0,0,0,633,307.37Z"/><path class="cls-11" d="M683.28,512.28l-11.9-4.1c4.77-1.71,9-3.13,11.9-4a2.26,2.26,0,0,0-1.37-4.31c-1.57.49-38.52,12.25-47,20.69-8.83,8.75-8.19,34.46-8.16,35.55a2.26,2.26,0,0,0,2.25,2.2H629a2.26,2.26,0,0,0,2.2-2.32c-.2-6.88.65-26.09,6.82-32.21,3.85-3.81,15.59-8.91,26.62-13.09l17.13,5.91a2.11,2.11,0,0,0,.73.12,2.26,2.26,0,0,0,.75-4.39Z"/><path class="cls-11" d="M611.27,531.86c-13.91-23.48-49.59-55.85-79.16-80.44l.85-42.35a2.26,2.26,0,0,0-4.52-.09l-.78,38.77c-21.48-17.68-38.81-30.59-40.49-31.83a2.26,2.26,0,0,0-2.69,3.63c.34.26,12.39,9.24,29,22.56L478.19,442a2.26,2.26,0,0,0,0,4.52l40.91.17c11.49,9.35,24.59,20.36,37.29,31.83l-27.08,4.8a2.26,2.26,0,0,0,.38,4.49,1.9,1.9,0,0,0,.41,0l30.52-5.41c19.76,18.12,38,37,46.78,51.85a2.28,2.28,0,0,0,1.94,1.11,2.36,2.36,0,0,0,1.16-.32A2.27,2.27,0,0,0,611.27,531.86Z"/><path class="cls-20" d="M626.08,509.28s-10.83-63.26-1.91-63.23,11.08,7.51,11.08,7.51-5.13-36.19,4.71-45.95,16.61-7.46,16.61-7.46-19.43-37.38,15.3-52.68c16.66-7.34,27.2,3.69,27.2,3.69S712.6,315,742,332.7c24.61,14.8,3.58,43,3.58,43s16.52,13.64,7.37,37.71-28,20.22-28,20.22,11.24,15.12-.12,26.38-36,5.87-36,5.87,11,3.35-.06,14.32S626.08,509.28,626.08,509.28Z"/><path class="cls-11" d="M718.37,411.82l-28.78,9c17-20.3,30.93-35.88,31.28-36.27a2.26,2.26,0,0,0-3.37-3c-1.73,1.93-22.07,24.63-43.37,50.89l2.77-29.77a2.26,2.26,0,1,0-4.5-.41L669,438.84c-21.64,27.09-42.82,56.41-45.15,70.05-4.71,27.59-8.62,57.78-8.66,58.08a2.26,2.26,0,0,0,1.95,2.53l.28,0a2.26,2.26,0,0,0,2.25-2c0-.3,4-30.4,8.64-57.89,2.58-15.12,31.2-52.42,55.94-82.38l35.48-11.15a2.26,2.26,0,1,0-1.36-4.31Z"/><rect class="cls-15" x="580.36" y="544.64" width="73.71" height="66.76" transform="translate(2.48 -2.64) rotate(0.25)"/><rect class="cls-16" x="566.33" y="531.1" width="107.75" height="5.62" transform="translate(2.28 -2.64) rotate(0.24)"/><rect class="cls-17" x="572.91" y="536.72" width="94.53" height="12.23" transform="translate(2.32 -2.64) rotate(0.24)"/><rect class="cls-21" x="382.58" y="405.33" width="154.86" height="127.77" rx="26.28" ry="26.28"/><path class="cls-21" d="M405.61,423.08c.46-.94,36.89-74.06,34.5-69.4,3.84-7.65,6.66-15.77,14.17-18.92a11.62,11.62,0,0,1,8.43-.22c5.47,1.95,8.52,6.86,10.9,11.82l-.05-.09L514.24,421l-2.06,1.12c-36.52-46.95-47-81.24-54.47-78.94-4,1.58-6.32,8.07-9.77,14.35l-7.38,13.73c-21.82,39.11-32.64,52.69-32.47,52.45-.16.23-.55.73-.82,1Z"/><path class="cls-22" d="M454.22,318.82c-1.15,3.68-4.64,15.06-6.66,21.68a6.84,6.84,0,0,0,2.17,7.26,2.05,2.05,0,0,1,.26.24c.91.91,2.87,3.88,3.78,3.88s3.18,1.93,4.45,1.93a10.27,10.27,0,0,1,4,1c2,.74,5.44-1.79,5.44-2.9s.91-8.26,2-14.31,1-19.48,1-19.48c.63-.63,1.54-1.66,2.65-3-4.82-2.55-9.65-5.08-14.82-6.6C456.14,314,454.55,317.8,454.22,318.82Z"/><path class="cls-23" d="M536,175.81l-19.51-50.76S491,219.28,491,227c0,6.22-22.83,58.64-32.56,81.51,5.17,1.52,12.4,6.45,17.22,9,11.53-13.75,44.13-63.68,44.13-63.68Z"/><path class="cls-24" d="M578.16,604c-18.63,0-21-24-21-24L573.3,461.12l8-147L585.8,277l-76.5,7.43-12.43,37.11L479.21,458.41,508,577.29s-2.36,24-21,24-18.18,7.39-18.18,7.39h54.54s-3.19-26.61-3.19-29.07-3.4-130.82-3.4-130.82l20.68-117,8.09,122.83S545,579.87,545,582.33s-3.19,29.07-3.19,29.07h54.54S596.8,604,578.16,604Z"/><path class="cls-25" d="M589.07,115.89c-10.42-14.35-51.69-27-71.08-3.59-16.85,20.36-20.49,79.62-21.6,131.24a618.66,618.66,0,0,1-8.34,86.84l99.06,1.4,2-134.09S599.49,130.23,589.07,115.89Z"/><path class="cls-22" d="M533,79.08s-.27,21.18-2.37,32c-.81,4.18,1.17,8.45,4.84,10a18.71,18.71,0,0,0,10.79,1c11.68-2.15,12.08-14.81,12.08-14.81l-3.94-38.63Z"/><path class="cls-26" d="M554.44,68.57,533,79.08s-.1,7.82-.65,16.38c5.59.26,12.6-2.79,20.05-12,1.11-1.37,2.14-2.72,3.1-4.07Z"/><path class="cls-22" d="M566.3,38.09c-2.58-7.08-25.94-17-31.88-13.3a37.07,37.07,0,0,0-10.49,16.09C520.76,51,518,58.27,518,58.27l3.37,2.14s-.53,2.79-.94,6.3c3.52.46,9,.82,13-.59,0,0-4.66,3.84-13.25,3.77-.27,3.61-.25,7.36.64,9.41,3.17,7.3,16.54,13.2,31.68-3.22S568.87,45.17,566.3,38.09Z"/><path class="cls-27" d="M557.19,40.67a18.66,18.66,0,0,0-16.43-3.44c-9.7,2.58-13-1.39-11.09-3.43,0,0-8.51.21-11.68-7.3s-2.37-30.26,12.67-26,12,14.6,12,14.6,4.82-4.94,9.37-2.36S556,19,556,19s4.16,8.37,9.9,9.44S571.05,42,571.05,42s3.36,2.57,1,11.58-16.35,23-16.35,27.26c0,0-3.45-5.58-.68-14.38s2.77-14-.19-14S557.19,40.67,557.19,40.67Z"/><path class="cls-22" d="M552.91,58.29s1-7.4,3.12-7.4,4.15.8,3.64,5-2.75,8.85-5.57,6.92A3.25,3.25,0,0,1,552.91,58.29Z"/><path class="cls-27" d="M573.08,26.57a3.37,3.37,0,0,0-1.61-1.94c-2.46-1.13-5.74,1.31-7.9,3l-.37-.47a16.85,16.85,0,0,1,5.16-4.3,5.16,5.16,0,0,1,7.22,2.79Z"/><path class="cls-27" d="M571.1,38.51a10.63,10.63,0,0,0-.08-4.2c-1.57-6.79-9.2-6.2-9.57-6.4v-.42c.22.08,11-2.19,12.58,8.77a12,12,0,0,1,.12,2.92Z"/><ellipse class="cls-28" cx="531.04" cy="47.31" rx="1.66" ry="3.3"/><path class="cls-28" d="M536.82,42c-3-2-7.3-1.26-7.34-1.26l-.19-1.27c.19,0,4.73-.82,8.15,1.43Z"/><path class="cls-26" d="M554.33,55.31s1.26-2.51,2.38-2.16,1.38,5.4-.62,7.53S552.42,59.32,554.33,55.31Z"/><path class="cls-29" d="M320.21,174.6s45.35,14.38,48.08,40.19l-12.1,3.91-41.84-26Z"/><path class="cls-30" d="M270.35,350.65s26.16,224.71,32.7,248.7V614.5h50.17s-3-5-8.7-5-20-5.47-23.92-9.26,2.47-314.35,2.47-314.35H260.76Z"/><polygon class="cls-31" points="262.98 95.17 261.78 113.94 306.28 108.89 295.89 96.15 262.98 95.17"/><path class="cls-32" d="M299.49,305.32l-7.23,36.35s-57.91,196.91-55.37,265.72c0,0,4.87,8.16,22.07,13,.93.26,1.81,3.47,1.81,3.47H215.9L218.43,610s1.45-234.13,1.45-261.39,7.23-62.76,7.23-62.76h75.28Z"/><path class="cls-33" d="M329.59,239.23c0-63.7-18.61-127.06-32.53-135.13,0,0-16.18-1.11-24.5-1.39-12.42-.41-31.53,5.86-41.84,41-6.5,22.15-3.43,75.62-2.73,122.21.31,20.66-2.83,40-2.39,54.59,35.07,0,60.73-1.16,94.76-1.16C320.89,308.22,329.59,259.25,329.59,239.23Z"/><path class="cls-34" d="M280.18,179.52c.1.95-20.69-74.94-20.69-74.94a78.38,78.38,0,0,0-16.23,8.49c-9.27,6.13-22.07,48.43-22.07,48.43s3.14,100.07,3.14,107.68c0,4.1-6.66,65.38-12.82,121.16l75.88,7.19C286.25,319.73,280.18,179.52,280.18,179.52Z"/><path class="cls-35" d="M297.06,104.1s26.77,10.43,32.53,80.45,5.76,213,5.76,213H309.12s-2.84-204.23-2.84-218.23S297.06,104.1,297.06,104.1Z"/><polygon class="cls-36" points="295.89 96.15 306.24 177.52 309.92 136.84 306.28 132.42 306.28 108.89 295.89 96.15"/><path class="cls-36" d="M249.46,310.3h4.94a17.38,17.38,0,0,1,17.38,17.38v29.41a0,0,0,0,1,0,0H232.08a0,0,0,0,1,0,0V327.69A17.38,17.38,0,0,1,249.46,310.3Z" transform="translate(503.86 667.39) rotate(180)"/><rect class="cls-36" x="221.72" y="253.99" width="10.35" height="22.73" transform="translate(453.8 530.72) rotate(180)"/><path class="cls-37" d="M250.49,184.31s0,0-.05-.05C250.91,184.22,250.88,184.25,250.49,184.31Z"/><polygon class="cls-38" points="358.5 225.69 424.63 178.46 355.97 172.22 304.05 226.99 358.5 225.69"/><path class="cls-22" d="M330.16,204.14s-8.08,1.8-11.07,5c-3.81,4.08-12.86,10.72-16.66,10.72s-20,1.58-20,1.58l-2.72,17.83s60.43-13.84,63.28-16.89-14.18,2.26-14.18.9,20.5-2.88,19.45-6.3-18.92,4.61-20.5,2.91,21.55-4.52,21.55-8.15-23,5.24-23,5.24-.43-1.84,5.81-4.78,12.28-5.31,10.9-6.79-17.32,7.89-19.42,5.64Z"/><path class="cls-39" d="M249.51,119.82s7.65,14,6.12,34.18-4.13,51.1.15,61.18,35.69,0,35.69,0v23.87s-45.53,18.5-58.71,12.44-11.93-58.16-11.93-83.71S241.1,101.49,249.51,119.82Z"/><path class="cls-22" d="M275.49,30.27c0-9.55,9.5-15,18.54-14.69,8.87.36,17.52.47,20.59,6.2,7.39,13.82-4,39.69-4,39.69s-6.05,12-18.14,12C284.15,73.52,275.56,48.12,275.49,30.27Z"/><path class="cls-22" d="M266.89,56.94s-3.26,43.87-2.09,53.08,25.28,11.52,30,4.44,0-37.39,0-37.39Z"/><path class="cls-26" d="M296.7,95.45c-.51-9.36-1.91-18.38-1.91-18.38l-27.9-20.13s-1,12.35-1.63,25.76a6,6,0,0,0,1.63-1.07c3.2-3.69,6.89-16.5,6.89-16.5s1.7,13,1.7,20.18c0,4.58,7.85,7.61,15.53,9.2a21.57,21.57,0,0,0,2.75-5.87,23.86,23.86,0,0,1-1.37,6.14C293.87,95.06,295.33,95.28,296.7,95.45Z"/><path class="cls-40" d="M307.47,79a18.1,18.1,0,0,0,3.67,5.6,20.46,20.46,0,0,0,4.35-12c0-6.91-4.07-10.66-4.07-13.22,0,0-1.42,5.86-9.15,7.1s-13.95-5-16.89-8.06-6.72-6.08-6.72-11.16-.54-24.94-.54-24.94-.81-3.41-9.21,1-7.39,7.79-8.74,14.53.51,11.69-4.7,13.46S244.55,61.3,248.58,70s15.12,9.74,18.31,6.38,6.89-13.64,6.89-13.64,1.7,10.45,1.7,17c0,4.18,7.85,7,15.53,8.4a19.09,19.09,0,0,0,2.75-5.36,20.2,20.2,0,0,1-1.37,5.61,65.24,65.24,0,0,0,10.13,1A10,10,0,0,0,308.83,87,18.32,18.32,0,0,1,307.47,79Z"/><path class="cls-41" d="M268.1,23.05c-7.73,3.67-7.77,7.76-8.9,13.72-1.84,8.64.36,11.78-4.65,13.46-11.36,5-11.76,23.43,2,27.72,3.45.91,7.67,1.12,10.35-1.59-3,2.12-6.84,1.51-9.93.27-11.29-4.55-10.89-20-1.45-23.75,6.55-1.79,4.57-8.14,6-15.65,1-5.58,0-8.72,7.23-13,2.53-1.57,7.76-4.51,9.41-1.91C276.8,19.3,271,21.69,268.1,23.05Z"/><path class="cls-22" d="M282.35,41.27a6.69,6.69,0,0,0-6.86-2.48c-4.4,1.07-1,12.94,2.83,12.94S282.35,41.27,282.35,41.27Z"/><path class="cls-42" d="M307.39,38.59c-.05,13.82-.66,12.39-1.4,19.12-1.42-.32-2.87-.54-4.31-.77a41.91,41.91,0,0,0,5,2C306.92,56.48,310,49.88,307.39,38.59Z"/><path class="cls-40" d="M294.37,36.4a8.92,8.92,0,0,1,5.46,0,29.26,29.26,0,0,1,4.54,1.42s.42-3.72-1.77-3.72-2.85,1.68-4.45,0S294.37,36.4,294.37,36.4Z"/><path class="cls-40" d="M317.74,36a5.06,5.06,0,0,0-4.05.15,17.7,17.7,0,0,0-3.31,1.54S310,34,311.56,33.94s2.17,1.61,3.3-.12S317.74,36,317.74,36Z"/><path class="cls-42" d="M300.17,39.76a1.69,1.69,0,1,1-1.65-2A1.88,1.88,0,0,1,300.17,39.76Z"/><path class="cls-42" d="M315,40.64a1.68,1.68,0,1,1-1.64-2A1.88,1.88,0,0,1,315,40.64Z"/><path class="cls-26" d="M278.76,42.08s-2.69-2.42-3.27-.28.8,6.67,2.7,6.94S278.76,42.08,278.76,42.08Z"/><path class="cls-42" d="M305.71,63.33c-2.74,2.79-8,2.45-12.65-2.59-.57-.62.24-1.58.9-1.05C295.1,60.11,298.42,65.33,305.71,63.33Z"/><polygon class="cls-36" points="280.18 179.52 262.98 95.17 245.21 108.98 260.76 137.87 259.61 146.91 280.18 179.52"/><path class="cls-22" d="M352.22,225.31a26.55,26.55,0,0,0,4.38,3.13c3.19,2,6.4-1.12,7.08-1.72a25.84,25.84,0,0,0,3.9-4.7,10.3,10.3,0,0,0,1.62-3.76c.46-2.12-7.5-8.66-8.25-8.13-.5.36-.89.84-.72,1.39s4.56,6.95,4.56,6.95-6.28-6.21-8.12-6-1.6,1.31-1.12,1.84,6.39,8,6.39,8-7.48-5.75-8.68-5.62-2,1.69,1,4.24a49.56,49.56,0,0,1,4.45,4.86s-5.62-3.51-7.42-3.32S352.22,225.31,352.22,225.31Z"/><path class="cls-23" d="M577.76,106.76s-14.56,8.4-14.56,32.93,89.21,121.86,89.21,121.86V221.7S605.33,119.93,577.76,106.76Z"/><path class="cls-22" d="M565.05,613.15a30.38,30.38,0,0,1,11.42-6.47c7.49-2.47,17.76-3.73,18.21-8.77,4-45-15.27-155.21-15.27-155.21l16.66-88.56,34.35,28-21.86,66.7s14.05,23.54,10.93,39.8-13.7,110.84-13.7,110.84,5.41,8.3,2.22,12.24Z"/><path class="cls-43" d="M576.47,606.68c1.6-.53,3.32-1,5-1.46,4.79.92,8.48,1.82,8.48,1.82,4.21-2.79,11-4.7,16.74-5.89,1.39,2.62,3.58,7.75,1.27,10.59l-43,1.41A30.38,30.38,0,0,1,576.47,606.68Z"/><path class="cls-22" d="M583.33,617.4a30.38,30.38,0,0,1,11.42-6.47c7.49-2.47,17.75-3.73,18.21-8.77,4-45-15.27-155.21-15.27-155.21l16.65-88.56,34.36,28-21.86,66.7s14,23.54,10.93,39.79-13.7,110.85-13.7,110.85,5.41,8.3,2.22,12.24Z"/><path class="cls-42" d="M594.75,610.93c1.6-.53,3.32-1,5-1.46,4.79.92,8.48,1.82,8.48,1.82,4.2-2.79,11.05-4.7,16.74-5.89,1.39,2.62,3.58,7.74,1.27,10.59l-43,1.41A30.38,30.38,0,0,1,594.75,610.93Z"/><path class="cls-42" d="M643.89,87.21s14.67.62,10.23,13.09-7.24,13-7.24,13,12.55-1.6,12.55,9-6.06,16.51-6.06,16.51-10.09,16.67.75,21.51,17.16-4.22,17.16-4.22a8,8,0,0,1-2.1,8.26c-3.82,3.85-11.4,0-11.4,0s6.92,9.85,12.45,8.38l-2.5,7.05s-7.38,1.47-12.12-4.66a21.21,21.21,0,0,1-2.63-5.72l4.87,11.31L648.23,178c-2.37-3.33.79-17.34-1.05-23.86s1.05-12.87,1.05-15.4-21.6-5.19-22.39-17.16S628.21,81,643.89,87.21Z"/><path class="cls-44" d="M637.44,115.46s17.38,9,13.22,46.55-3.95,78.64.77,90.62C671.54,303.73,653,520.2,653,520.2c-25.79,2.9-103.79,2-103.79,2s21.19-361.66,47.51-388C619.61,111.31,637.44,115.46,637.44,115.46Z"/><path class="cls-22" d="M615.09,120.33c3.53-14.82.58-41.09.58-41.09l18.17-6.39s5.22,44,4.5,44C632.22,126.53,614.25,127.58,615.09,120.33Z"/><path class="cls-26" d="M633.84,72.85l-18.17,6.39s.74,6.59,1,15a33.86,33.86,0,0,0,14-7.65c1.68-1.51,3.09-2.84,4.26-4.09C634.32,76.89,633.84,72.85,633.84,72.85Z"/><path class="cls-42" d="M594,42.69s13.79,17.45,19.46,19.61,18.34,5.51,18.34,5.51,5.2,25.69,5,31.28c0,0,22.73-4.23,13.33-43.27C646.56,40.94,645,31.49,630,25.08S599,28.36,594,42.69Z"/><path class="cls-22" d="M605.29,37.85s-9.78,3.34-10.72,10.93.88,11.38.43,15,0,10.49,4.34,21,19.18,4.57,27.67-3c9.56-8.48,10.45-11.07,10.43-24.76S620.94,32.1,605.29,37.85Z"/><path class="cls-28" d="M604.86,73.48c.17-1.16-1.42.21-4.1-3.52a12.13,12.13,0,0,0,1.75-5.52,10.86,10.86,0,0,1-3.13,5.47c.1.1,2.16,3.63,4.85,4h0A.56.56,0,0,0,604.86,73.48Z"/><path class="cls-28" d="M611.1,64.92a1.61,1.61,0,0,1-2.27-.29,1.65,1.65,0,0,1,.28-2.29,1.61,1.61,0,0,1,2.27.29A1.65,1.65,0,0,1,611.1,64.92Z"/><path class="cls-28" d="M597.7,64.47a1.61,1.61,0,0,1-2.27-.29,1.64,1.64,0,0,1,.28-2.29,1.61,1.61,0,0,1,2.27.28A1.66,1.66,0,0,1,597.7,64.47Z"/><path class="cls-45" d="M605.29,60.93a14.23,14.23,0,0,1,5.49.57,18,18,0,0,1,2.51,1.11A16.9,16.9,0,0,1,615.65,64a9.49,9.49,0,0,1-2.72-.5c-.89-.26-1.72-.71-2.5-1C608.79,61.91,607.05,61.48,605.29,60.93Z"/><path class="cls-45" d="M593.14,60.66a10.74,10.74,0,0,1,4.1.7,15.63,15.63,0,0,1,1.92,1A16.56,16.56,0,0,1,601,63.51a7.27,7.27,0,0,1-2-.51c-.67-.24-1.31-.62-1.9-.88C595.79,61.58,594.47,61.17,593.14,60.66Z"/><path class="cls-45" d="M605.33,56l.75,2s4.88-.29,7,1.7C613.09,59.72,609.42,54.8,605.33,56Z"/><path class="cls-45" d="M594.46,55.31l.32,1.88s4.89-.3,7,1.7C601.79,58.89,598.56,54.09,594.46,55.31Z"/><path class="cls-46" d="M600.87,78.78a46.78,46.78,0,0,0,10.23-2.37s-4.26,6.91-6.88,6.58S600.87,78.78,600.87,78.78Z"/><path class="cls-28" d="M596,30.77s-7.77,1.26-6.82,8.8,19.56,16.68,32.31,15.16c4.79-.57,4.69,2.29,6.51,4.16,3,3.11,5.64,6.93,2.75,12.82-4.61,9.43-8.64,4.42-8.64,4.42s3.58,5.75,14.81,2.74S650,59.27,642,49.51s-16.46-14.39-23.32-16.82C603.75,27.43,596,30.77,596,30.77Z"/><path class="cls-22" d="M632.21,56.74c-1.3,0-7,3.81-5.61,7.91s2.85,4.41,6.52,2.57S635.51,56.74,632.21,56.74Z"/><path class="cls-26" d="M628.33,62s2.85-3.41,4.19-1.67A3.85,3.85,0,0,1,631.36,66C629.39,66.89,626.41,64.07,628.33,62Z"/><path class="cls-22" d="M619.77,70.21c0,1.85-2.36,3.35-5.28,3.35s-5.28-1.5-5.28-3.35,2.36-3.34,5.28-3.34S619.77,68.36,619.77,70.21Z"/><path class="cls-22" d="M598.93,71.19c0-1.57-1.71-2.89-4-3.25a39,39,0,0,0,1,6.29C597.67,73.7,598.93,72.54,598.93,71.19Z"/><path class="cls-47" d="M582.12,182.13C577.4,208,573,241.82,569.05,278.08a45.63,45.63,0,0,0,3.84,7.05c15,22,65.22,12.71,83.13-14.6a93.76,93.76,0,0,0-4.59-17.9c-2-5.09-3.2-15.44-3.59-28.54C632.39,206,606.41,189.11,582.12,182.13Z"/><path class="cls-22" d="M650,266.12a36.7,36.7,0,0,0,6.8-3.09c4.58-2.47,3.07-8.48,2.82-9.71a35.92,35.92,0,0,0-2.95-7.94,14.22,14.22,0,0,0-3.39-4.54c-2.24-2-15.61,3-15.48,4.29.08.85.39,1.65,1.16,1.83s11.52-.67,11.52-.67-11.82,3.24-12.85,5.59.48,2.83,1.44,2.63,14.06-2.13,14.06-2.13-12.08,5-12.75,6.54.63,3.6,5.78,1.74a49.33,49.33,0,0,1,7.31-1.73S647,263,646,265.29,650,266.12,650,266.12Z"/><path class="cls-22" d="M653.91,238.44c.25-.5.48-1,.68-1.48,7-16.81,11.43-105-16.19-101.68,0,0-14.51,7.23-8.45,25,5.57,16.36,9.24,48.61,8.69,61.89A95.08,95.08,0,0,1,653.91,238.44Z"/><path class="cls-48" d="M637.44,194.31c-6.8-9-10.43-11.94-18.18-20.1-9.4-9.91-22.7-20.15-25.23-34.37a17.11,17.11,0,0,0-8.76-11.73,21.63,21.63,0,0,0-7-2.44,14,14,0,0,0-3.71-.28c-1,.12-2.36,1.11-3.3.92s-3.24-2.93-3.84-3.81a16.78,16.78,0,0,0-27.36-.53c-14.61-2-24.29,14.43-16,26.24a29.13,29.13,0,0,0-1.19,2.85,16.79,16.79,0,0,0,10.2,23.75,16.79,16.79,0,0,0,12.36,21c2,5.77,4.29,11.3,8.84,16.49,9.32,10.62,16.92,10.15,28.9,17.54,16.65,10.26,41,17.19,54.15,8.63S649.61,210.4,637.44,194.31Z"/><path class="cls-49" d="M585.12,134.42a9.75,9.75,0,0,0-6-3.59c-5.27-.81-7.81,1.69-9.15,1.47-2-.33-6.76-14.16-18.56-12.84-4.22.44-7.34,3.28-9.78,6.75l-5.13-.33a12.46,12.46,0,0,0-11.68,14.22c.61,3.91,3.49,5.59,3.12,8.46-1.06,3-4.57,6.91-2.64,13.52a13,13,0,0,0,6.29,7.92,27.59,27.59,0,0,0,6.35,2.21c-.32,1.82-2.74,5.26-.83,10.91,1.36,4.1,5.22,7.16,9.36,8.52,10,3.32,24.75-3.57,33.38-9.44-6.27,3.17-14.7,6.44-21.63,7.38a28.64,28.64,0,0,1-5.53.3c-6.67-.31-11.2-4.3-12.17-7.84a9.42,9.42,0,0,1,0-5.15c.13-.34.81-2.22.78-2.15a27.33,27.33,0,0,0,.94-3c.93-4.47-6.34-2.71-10.37-6.88a9.25,9.25,0,0,1-1.52-10.79c1.08-2.08,1.82-3.05,2.22-5.39.46-4.5-2.77-6.54-3.23-9.33a8.33,8.33,0,0,1,3.51-7.79c2.63-1.75,5.47-1.3,8.48-1.13a9.65,9.65,0,0,0,1.61,0l.28-.05a2.3,2.3,0,0,0,1.33-1,18.77,18.77,0,0,1,3.27-4.12c3.27-2.92,8.51-3.1,13.19,1.18,6.28,5.72,5.75,10.56,12.16,7.45,3.37-1.64,6.82-1.73,9.89.51,2.2,1.93,3.29,3.92,4.57,6.92.77,1.76,1.42,3.58,2.18,5.36C588.29,141.29,588,138.67,585.12,134.42ZM537,130.23h0Zm5.23-3.93h0Z"/><path class="cls-22" d="M557.64,138.45c-4.54-.72-13.35,2.15-14.43,11.4s7.38,21.68,19.57,20.38S590.61,143.65,557.64,138.45Z"/><path class="cls-28" d="M549.47,140.21c8.87-1.32,5.32-4.81,3.68-4.59-.38,0-.67.26-.7.43a.73.73,0,0,1-.85.59c-1-.18-.62-1.56.44-2C555.21,133.09,560.4,139.83,549.47,140.21Z"/><path class="cls-28" d="M547.18,141.88c1.82,4.79,7,.55,3.7-3a2.74,2.74,0,0,0-2-.57h0a.72.72,0,1,1,0-1.44c4.2.15,5,5.48,2.32,7.13a2.48,2.48,0,0,1-3.32-.58A4.19,4.19,0,0,1,547.18,141.88Z"/><path class="cls-28" d="M560.51,151.4a3.25,3.25,0,0,0-2.36.52c-.6.44.08,1.5.51,2.12C556.35,152.32,558.28,150.46,560.51,151.4Z"/><path class="cls-22" d="M574.73,148.84a5.91,5.91,0,1,1-5.91-5.9A5.91,5.91,0,0,1,574.73,148.84Z"/><path class="cls-22" d="M564.17,164.22c0,3.12-2.87,5.66-6.41,5.66s-6.42-2.54-6.42-5.66,2.87-5.66,6.42-5.66S564.17,161.09,564.17,164.22Z"/><path class="cls-28" d="M552.08,157.57H552a.14.14,0,0,1-.13-.15.14.14,0,0,1,.14-.13,4,4,0,0,0,2.76-1,2.55,2.55,0,0,0,.51-2.19.15.15,0,0,1,.12-.16.15.15,0,0,1,.16.12,2.83,2.83,0,0,1-.59,2.42A4.09,4.09,0,0,1,552.08,157.57Z"/><path class="cls-28" d="M559.88,149.34a.18.18,0,0,1-.15-.1.17.17,0,0,1,.09-.22,3.11,3.11,0,0,0,1.9-1.93,4.81,4.81,0,0,0-.76-3.44.16.16,0,0,1,0-.23.16.16,0,0,1,.23,0,5.07,5.07,0,0,1,.79,3.72,3.37,3.37,0,0,1-2.08,2.14Z"/><path class="cls-50" d="M568.12,158.39c0,2-.88,3.63-2,3.63s-2-1.63-2-3.63.89-3.64,2-3.64S568.12,156.38,568.12,158.39Z"/><path class="cls-51" d="M589.81,162c12.57,9,32.23,24.57,41.66,36.86a31.28,31.28,0,0,1,4.81,8.07,54.88,54.88,0,0,1,2.35,13.43c.22,4.45-.26,15-4.29,13a2,2,0,0,1-.71-3,19,19,0,0,0,1-3.38c.37-3.31,1.23-7.69-.63-17.29-1.84-10.12-19.53-26.52-27.22-33.44Q598.54,168.92,589.81,162Z"/><path class="cls-22" d="M658.05,221.27c-.95.68-5.4,4.87-6.14,5.3-9.21,5.36-62.13-1.37-62.24-1.49-1.71-1.64-9.44-7-14.78-10.21s-6.75-8.52-8.75-8.61c-1.6-.08-1.59,3.89,1.56,6.08s8.22,5.83,5,8.11S552,209,551.86,208.87c-1.69-1.36-5.1-3.39-4.91-1.24.34,1.13,5.69,5.78,9.25,8.18,6.19,4.17,8.1,5.56,8.2,6.62-.65.67-4.7-1.94-13.83-7.43-10-6-19.29-6,2,4.82,5.85,3,10.17,6,9.7,6.48-1.42,1.48-5.12-.72-8.79-2.43s-11.64-5-9.79-1.34c.58.7,5.59,2.61,9.24,4,7.91,3,10.1,4,10.41,5.22-2.45,2.55-10.67-1.84-15.19-3.17a.63.63,0,0,0-.56,1.11,45,45,0,0,0,14.36,6.2c7.1,1.84,19,3,26.21,3.49.94.8,46.57,11.28,65.19,7.53C655.23,239.61,657.89,228.64,658.05,221.27Z"/><path class="cls-22" d="M556.21,194.71l45.63,12s13.41,9.69,19.44,11.61,13.41,8.58,12,10.63-9-4.9-10.25-4.69,4.45,8.43,5.38,13.81,2.76,10.62-.32,10.2-5.32-12.56-5.32-12.56-4.74-9.17-5.5-8.08,3.16,7.37,3.16,7.37.94,6.81,1.35,9.2c.3,1.79-1.34,7.15-2.74,5.18-.82-1.16-.43-5.58-1.39-8.11a40.13,40.13,0,0,0-5.16-9.29s3.43,15.52,1.28,15.89-4.39-12.48-4.39-12.48-5.26-10.71-7.56-11.66-8.61-5-13.5-6.73-25.08,3.9-34.09,4-23.63-5.46-24.84-12.54c-.37-2.17,1-4.56,3-6.83A23.88,23.88,0,0,1,556.21,194.71Z"/><path class="cls-52" d="M663.67,61.73a.39.39,0,0,1-.15,0,.65.65,0,0,1-.49-.79c5.1-20.92-1.32-34.83-7.59-42.82-6.73-8.56-14.82-12.36-16.77-12.36a.66.66,0,1,1,0-1.32c2.69,0,11.17,4.42,17.8,12.86,6.46,8.22,13.06,22.52,7.84,43.95A.65.65,0,0,1,663.67,61.73Z"/><path class="cls-52" d="M671.67,89a.67.67,0,0,1-.47-.2.65.65,0,0,1,0-.93c16.6-16.6,9.67-51,9.6-51.4a.66.66,0,0,1,.51-.78.67.67,0,0,1,.78.51c.07.36,7.14,35.51-10,52.6A.65.65,0,0,1,671.67,89Z"/><path class="cls-52" d="M353.22,469.63a.65.65,0,0,1-.66-.66c0-59.22,26.49-81.18,37.8-90.56,1.44-1.2,2.58-2.14,3.36-2.92a.66.66,0,0,1,.93.93c-.82.82-2,1.78-3.45,3C380,388.68,353.87,410.36,353.87,469A.65.65,0,0,1,353.22,469.63Z"/></g></g></svg>