<svg xmlns="http://www.w3.org/2000/svg" xmlns:xlink="http://www.w3.org/1999/xlink" viewBox="0 0 2285.74 1656.25"><defs><style>.cls-1{isolation:isolate;}.cls-2{fill:url(#linear-gradient);}.cls-3{fill:url(#linear-gradient-2);}.cls-4{fill:#f3f3f3;}.cls-5{fill:#fff;}.cls-6{fill:url(#linear-gradient-3);}.cls-7{fill:url(#linear-gradient-4);}.cls-8{fill:url(#linear-gradient-5);}.cls-9{fill:url(#linear-gradient-6);}.cls-10{fill:#e0e0e0;}.cls-11{fill:url(#linear-gradient-7);}.cls-12{fill:url(#linear-gradient-8);}.cls-13{fill:url(#linear-gradient-9);}.cls-14{fill:url(#linear-gradient-10);}.cls-15{fill:url(#linear-gradient-11);}.cls-16{fill:url(#linear-gradient-12);}.cls-17,.cls-24{fill:#f5f5f5;}.cls-18{fill:url(#linear-gradient-13);}.cls-19{fill:url(#linear-gradient-14);}.cls-20{fill:url(#linear-gradient-15);}.cls-21{fill:url(#linear-gradient-16);}.cls-22{fill:#4e7ed6;}.cls-23{fill:url(#radial-gradient);}.cls-24{mix-blend-mode:hard-light;}.cls-25{fill:#537ffd;}.cls-26{fill:#4ba6f3;}.cls-27{fill:#46bbed;}.cls-28{fill:url(#linear-gradient-17);}.cls-29{fill:url(#linear-gradient-18);}.cls-30{fill:url(#linear-gradient-19);}.cls-31{fill:url(#linear-gradient-20);}.cls-32{fill:#8e4f3a;}.cls-33{fill:#353a3d;}.cls-34{fill:#248c9e;}.cls-35{fill:#2aa3b8;}.cls-36{fill:#196370;}.cls-37{fill:#1d6f7d;}.cls-38{fill:#3b3b40;}.cls-39{fill:#633029;}.cls-40{fill:#616161;}.cls-41{fill:#e0cec7;}.cls-42{fill:url(#linear-gradient-21);}.cls-43{fill:url(#linear-gradient-22);}.cls-44{fill:#2d5bad;}.cls-45{fill:#5d96ff;}.cls-46{fill:#81807e;}.cls-47{fill:#223247;}.cls-48{fill:#c98462;}.cls-49{fill:#258ea1;}.cls-50{fill:#5e3527;}.cls-51{fill:#7a4432;}.cls-52{fill:#2d3133;}.cls-53{fill:#dbdff0;}.cls-54{fill:#bcc0cf;}.cls-55{fill:#434343;}.cls-56{fill:#a7aab8;}.cls-57{fill:#c6cad9;}</style><linearGradient id="linear-gradient" x1="544.5" y1="289.85" x2="864.11" y2="289.85" gradientUnits="userSpaceOnUse"><stop offset="0" stop-color="#ff9f55"/><stop offset="1" stop-color="#ffd255"/></linearGradient><linearGradient id="linear-gradient-2" x1="491.61" y1="73.26" x2="638.13" y2="73.26" xlink:href="#linear-gradient"/><linearGradient id="linear-gradient-3" x1="2437.5" y1="-9420.77" x2="2754.87" y2="-9420.77" gradientTransform="translate(-8455.87 847.45) rotate(73.11)" gradientUnits="userSpaceOnUse"><stop offset="0" stop-color="#40d5e6"/><stop offset="1" stop-color="#57f"/></linearGradient><linearGradient id="linear-gradient-4" x1="1442.01" y1="665.16" x2="1636.1" y2="342.96" gradientUnits="userSpaceOnUse"><stop offset="0" stop-color="#602f80"/><stop offset="1" stop-color="#5770ff"/></linearGradient><linearGradient id="linear-gradient-5" x1="4803.09" y1="-4184.14" x2="4770.09" y2="-4271.48" gradientTransform="translate(-8455.87 847.45) rotate(73.11)" xlink:href="#linear-gradient-4"/><linearGradient id="linear-gradient-6" x1="2282.41" y1="1339.07" x2="2282.41" y2="972.18" xlink:href="#linear-gradient-4"/><linearGradient id="linear-gradient-7" x1="-9205.12" y1="954.52" x2="-7306.11" y2="954.52" gradientTransform="matrix(-1, 0, 0, 1, -6922.72, 0)" xlink:href="#linear-gradient"/><linearGradient id="linear-gradient-8" x1="123.28" y1="1113.13" x2="123.28" y2="883.43" xlink:href="#linear-gradient"/><linearGradient id="linear-gradient-9" x1="179.9" y1="1113.13" x2="179.9" y2="883.43" xlink:href="#linear-gradient"/><linearGradient id="linear-gradient-10" x1="236.52" y1="1113.13" x2="236.52" y2="883.43" xlink:href="#linear-gradient"/><linearGradient id="linear-gradient-11" x1="293.13" y1="1113.13" x2="293.13" y2="883.43" xlink:href="#linear-gradient"/><linearGradient id="linear-gradient-12" x1="1060.84" y1="1874.31" x2="1089.95" y2="220.58" gradientTransform="translate(2155.3 1838.78) rotate(-180)" xlink:href="#linear-gradient-3"/><linearGradient id="linear-gradient-13" x1="1159.95" y1="480.72" x2="1376.67" y2="480.72" gradientTransform="matrix(1, 0, 0, 1, 0, 0)" xlink:href="#linear-gradient-3"/><linearGradient id="linear-gradient-14" x1="1159.95" y1="595.63" x2="1358.89" y2="595.63" gradientTransform="matrix(1, 0, 0, 1, 0, 0)" xlink:href="#linear-gradient-3"/><linearGradient id="linear-gradient-15" x1="1159.95" y1="538.17" x2="1332.08" y2="538.17" gradientTransform="matrix(1, 0, 0, 1, 0, 0)" xlink:href="#linear-gradient-3"/><linearGradient id="linear-gradient-16" x1="927.42" y1="704.67" x2="927.42" y2="466.68" gradientUnits="userSpaceOnUse"><stop offset="0" stop-color="#7db3e0"/><stop offset="1" stop-color="#fff"/></linearGradient><radialGradient id="radial-gradient" cx="-8924.87" cy="2294.99" r="179.09" gradientTransform="matrix(-3.8, 0, 0, 3.8, -32553.45, -7707.96)" gradientUnits="userSpaceOnUse"><stop offset="0.16" stop-color="#90c2e8"/><stop offset="0.58" stop-color="#47afff"/><stop offset="1" stop-color="#6783f5"/></radialGradient><linearGradient id="linear-gradient-17" x1="236.12" y1="1328.13" x2="227.39" y2="977.29" xlink:href="#linear-gradient"/><linearGradient id="linear-gradient-18" x1="193.49" y1="1329.2" x2="184.76" y2="978.35" xlink:href="#linear-gradient"/><linearGradient id="linear-gradient-19" x1="1155.38" y1="17.37" x2="1076.77" y2="311.44" gradientTransform="translate(2235.52 316.21) rotate(-180)" xlink:href="#linear-gradient"/><linearGradient id="linear-gradient-20" x1="1151.46" y1="16.33" x2="1072.85" y2="310.39" gradientTransform="translate(2235.52 284.75) rotate(-180)" xlink:href="#linear-gradient"/><linearGradient id="linear-gradient-21" x1="919.52" y1="351.19" x2="938.44" y2="640.88" gradientTransform="matrix(1, 0, 0, 1, 0, 0)" xlink:href="#linear-gradient-3"/><linearGradient id="linear-gradient-22" x1="919.52" y1="351.19" x2="938.44" y2="640.88" gradientTransform="translate(455.32 1399.51) rotate(-90)" xlink:href="#linear-gradient-3"/></defs><title>doctors_1</title><g class="cls-1"><g id="Layer_2" data-name="Layer 2"><g id="Слой_1" data-name="Слой 1"><path class="cls-2" d="M579.09,342.1a134.84,134.84,0,0,0,19.19,32.38l-11.41,23.93,23,17.28L633,433l19.78-17.66a134.54,134.54,0,0,0,36.45,9.36l8.85,25,28.51-4.07,28.51-4.07,1.51-26.45a135,135,0,0,0,32.38-19.19l23.93,11.42,17.28-23.05,17.28-23-17.65-19.78A134.44,134.44,0,0,0,839.14,305l25-8.85L860,267.61,856,239.1l-26.45-1.51a135,135,0,0,0-19.19-32.38l11.41-23.93L798.7,164l-23-17.28-19.78,17.65A134.61,134.61,0,0,0,719.42,155l-8.84-25-28.51,4.07-28.52,4.07-1.5,26.45a134.84,134.84,0,0,0-32.38,19.19l-23.93-11.41-17.28,23-17.28,23,17.65,19.78a134.61,134.61,0,0,0-9.36,36.46l-25,8.84,4.07,28.51,4.07,28.52ZM690,189.94a100.92,100.92,0,1,1-85.65,114.17A100.91,100.91,0,0,1,690,189.94Z"/><path class="cls-3" d="M507.46,97.22a61.74,61.74,0,0,0,8.8,14.84L511,123,521.59,131l10.56,7.92,9.07-8.09a62.12,62.12,0,0,0,16.72,4.29l4,11.45,13.07-1.87,13.07-1.87.69-12.12a61.61,61.61,0,0,0,14.85-8.8l11,5.23,7.92-10.56L630.48,106l-8.09-9.07a61.39,61.39,0,0,0,4.29-16.72l11.45-4-1.87-13.07L634.4,50l-12.13-.69a61.91,61.91,0,0,0-8.79-14.85l5.23-11-10.57-7.92L597.58,7.65l-9.07,8.09a61.68,61.68,0,0,0-16.71-4.29L567.75,0,554.67,1.87,541.6,3.73l-.69,12.13a61.74,61.74,0,0,0-14.84,8.8l-11-5.24L507.17,30l-7.92,10.56,8.09,9.07a62.05,62.05,0,0,0-4.29,16.71l-11.44,4.06,1.86,13.07,1.87,13.07Zm50.87-69.76A46.27,46.27,0,1,1,519.06,79.8,46.27,46.27,0,0,1,558.33,27.46Z"/><rect class="cls-4" x="1046.5" y="669.05" width="6.67" height="700.15"/><rect class="cls-5" x="1049.84" y="582.78" width="71.94" height="18.25"/><rect class="cls-5" x="1049.84" y="616.52" width="57.56" height="18.25"/><rect class="cls-5" x="1053.17" y="1410.69" width="75.49" height="24.33"/><path class="cls-6" d="M1327,424.94s146,173.13,53.39,285.24-118.11,2.19-118.11,2.19-55.44,10.29,40.58-129.94C1348.08,516.34,1327,424.94,1327,424.94Z"/><path class="cls-7" d="M1647,289.85S1755.48,450,1566.62,634.39,1391.8,928.82,1391.8,928.82,1198.7,550.83,1647,289.85Z"/><path class="cls-8" d="M1356.54,859.25c-79.23,7.15,12.7-207.1,136.49-263S1721.55,545,1793.93,486C1793.93,486,1746.72,824,1356.54,859.25Z"/><rect class="cls-9" x="2279.07" y="669.05" width="6.67" height="700.15"/><rect class="cls-4" x="857.9" y="669.05" width="6.67" height="700.15"/><rect class="cls-4" x="1332.4" y="669.05" width="6.67" height="700.15"/><rect class="cls-10" x="386.73" y="582.78" width="113.65" height="18.25"/><rect class="cls-10" x="386.73" y="616.52" width="161.21" height="18.25"/><rect class="cls-5" x="856.12" y="582.78" width="133.43" height="18.25"/><rect class="cls-5" x="856.12" y="616.52" width="85.32" height="18.25"/><rect class="cls-5" x="1339.07" y="582.78" width="82.69" height="18.25"/><rect class="cls-5" x="1339.07" y="616.52" width="96.37" height="18.25"/><rect class="cls-5" x="861.23" y="1410.69" width="75.49" height="24.33"/><rect class="cls-5" x="1339.07" y="1410.69" width="75.49" height="24.33"/><path class="cls-11" d="M1437.2,1153.25c109.25,0,195.89-73.46,280.71-145.38,64.32-54.53,131-110.29,208.08-137.79,235.07-83.93,355.34,69.33,356.42,70.68V894.14c-1.27-1.6-22.73-29.45-84.79-56-56.51-24.22-151.31-43.53-282.08,1.95-82.85,28.82-151.65,87.15-218.19,143.57-135,114.44-251.55,213.27-454,58.46-153.33-117.25-297.87-229-440.09-269.8-139.1-39.93-284.12-10.7-419.87,125l1,42.34C672.75,650,918.27,833.52,1224,1067.34,1305,1129.27,1374.81,1153.25,1437.2,1153.25Z"/><rect class="cls-10" x="111.88" y="929.52" width="22.8" height="98.46"/><rect class="cls-10" x="168.5" y="889.52" width="22.8" height="138.46"/><rect class="cls-10" x="225.12" y="868.65" width="22.8" height="159.32"/><rect class="cls-10" x="281.73" y="859.95" width="22.8" height="168.02"/><rect class="cls-12" x="111.88" y="966.2" width="22.8" height="61.77"/><rect class="cls-13" x="168.5" y="941.11" width="22.8" height="86.86"/><rect class="cls-14" x="225.12" y="928.02" width="22.8" height="99.96"/><rect class="cls-15" x="281.73" y="922.56" width="22.8" height="105.41"/><rect class="cls-16" x="660.81" y="367.89" width="833.68" height="1102.99" rx="59.95" ry="59.95" transform="translate(2155.3 1838.78) rotate(180)"/><path class="cls-17" d="M750.4,246.51h694.76a0,0,0,0,1,0,0V1424.28a0,0,0,0,1,0,0h-735a0,0,0,0,1,0,0V286.77A40.25,40.25,0,0,1,750.4,246.51Z"/><rect class="cls-18" x="1159.95" y="467.02" width="216.72" height="27.41"/><rect class="cls-19" x="1159.95" y="581.92" width="198.94" height="27.41"/><rect class="cls-20" x="1159.95" y="524.47" width="172.13" height="27.41"/><path class="cls-21" d="M927.42,642.8a169.21,169.21,0,0,1-70.56-15.21A171.17,171.17,0,0,1,756.71,472.1c0-94.13,76.58-170.71,170.71-170.71s170.7,76.58,170.7,170.71A171.17,171.17,0,0,1,998,627.59,169.19,169.19,0,0,1,927.42,642.8Zm0-332.4c-89.16,0-161.7,72.54-161.7,161.7a162.15,162.15,0,0,0,94.87,147.29,162.25,162.25,0,0,0,133.65,0,162.15,162.15,0,0,0,94.87-147.29C1089.11,382.94,1016.58,310.4,927.42,310.4Z"/><rect class="cls-10" x="756.71" y="711.52" width="249.02" height="24.44"/><rect class="cls-10" x="756.71" y="777.28" width="249.02" height="24.44"/><rect class="cls-10" x="756.71" y="843.03" width="249.02" height="24.44"/><rect class="cls-22" x="1056.56" y="711.52" width="41.57" height="24.44"/><rect class="cls-22" x="1056.56" y="777.28" width="41.57" height="24.44"/><rect class="cls-22" x="1056.56" y="843.03" width="41.57" height="24.44"/><path class="cls-23" d="M548.83,1161.18c148,0,276.66-64,410.78-130.68,165.58-82.34,336.8-167.48,564.93-144.16,145.67,14.88,237.1,74.21,317.77,126.55,73,47.39,142.1,89.06,235.63,92.62,151.15,5.75,203.59-58.71,204.47-62.64v-41.38h0c-.19.72-33.19,73.08-204.31,72.22-84.27-.43-146.46-40.78-218.48-87.5-83.69-54.3-178.54-115.85-331.85-131.51-237.27-24.25-412.69,63-582.32,147.33-177.5,88.26-346.88,171-561.05,99.22v34C445.44,1155.73,494.27,1161.18,548.83,1161.18Z"/><rect class="cls-24" x="1157.45" y="686.9" width="497.53" height="755.5" rx="74.73" ry="74.73"/><path class="cls-10" d="M1596.81,799.27a81.44,81.44,0,1,0-153.37,54.85c.62,1.72,1.29,3.42,2,5.08a81.44,81.44,0,0,0,151.36-59.93Zm-56.12,84.92a61,61,0,0,1-76.55-33.13c-.54-1.24-1.05-2.51-1.51-3.8a61.06,61.06,0,1,1,78.06,36.93Z"/><path class="cls-25" d="M1461.84,808.5l-19.46-6.08a81.55,81.55,0,0,1,75.31-57.15l.61,20.38a61.11,61.11,0,0,0-56.46,42.85Z"/><path class="cls-26" d="M1464.14,851.06l-18.69,8.14c-.72-1.66-1.39-3.36-2-5.08a81.06,81.06,0,0,1-1.06-51.7l19.46,6.08a60.77,60.77,0,0,0,.79,38.76C1463.09,848.55,1463.6,849.82,1464.14,851.06Z"/><path class="cls-27" d="M1458.07,879.47a81,81,0,0,1-12.62-20.27l18.69-8.14a60.48,60.48,0,0,0,9.46,15.2Z"/><rect class="cls-27" x="1475.5" y="1271.84" width="43.9" height="143.94"/><rect class="cls-27" x="1410.24" y="1312.21" width="43.9" height="103.57"/><rect class="cls-27" x="1538.82" y="1205.13" width="43.9" height="210.66"/><polygon class="cls-27" points="1223.91 1257.01 1220.1 1254.08 1291.63 1161 1379.92 1165.79 1446.5 1059.77 1518.22 1052.37 1561.32 967.12 1565.62 969.29 1521.33 1056.88 1449.33 1064.31 1382.49 1170.75 1293.9 1165.94 1223.91 1257.01"/><path class="cls-22" d="M1359.21,794.16H1234.37a14.27,14.27,0,0,1-14.27-14.27h0a14.27,14.27,0,0,1,14.27-14.27h124.84a14.27,14.27,0,0,1,14.27,14.27h0A14.27,14.27,0,0,1,1359.21,794.16Z"/><path class="cls-10" d="M1359.21,844H1234.37a14.27,14.27,0,0,1-14.27-14.27h0a14.27,14.27,0,0,1,14.27-14.27h124.84a14.27,14.27,0,0,1,14.27,14.27h0A14.27,14.27,0,0,1,1359.21,844Z"/><path class="cls-10" d="M1359.21,893.74H1234.37a14.27,14.27,0,0,1-14.27-14.27h0a14.27,14.27,0,0,1,14.27-14.27h124.84a14.27,14.27,0,0,1,14.27,14.27h0A14.27,14.27,0,0,1,1359.21,893.74Z"/><polygon class="cls-28" points="214.93 1193.09 265.18 1193.09 249.8 1161.18 199.54 1161.18 214.93 1193.09"/><polygon class="cls-29" points="191.41 1193.09 203.38 1193.09 188 1161.18 176.03 1161.18 191.41 1193.09"/><rect class="cls-30" x="1068.01" y="149.09" width="99.5" height="18.03" transform="translate(2235.52 316.21) rotate(180)"/><rect class="cls-31" x="1068.01" y="140.68" width="99.5" height="3.39" transform="translate(2235.52 284.75) rotate(180)"/><path class="cls-32" d="M363.7,1144.54s-14.45,7.18-28.13,8.52c0,0-12.93-19-20.5-33.15-18.05-33.85-23.37-49.7-21.83-62.7C296,1033.85,342,940.36,342,940.36l51,19.69-39.06,69.4c-3.64,7.11-8.34,18.67-13.2,28.07-6.37,12.33,1.3,40.53,5.83,52.3C346.54,1109.82,354.87,1132.63,363.7,1144.54Z"/><path class="cls-33" d="M204.29,1529.6s-1.5,8.46,4.35,19.76,32.08,40.08,30.28,51.91-32.12,10.42-51.15-10.39-47.3-42.43-46.25-47.43,29.58-31,39.5-34.42S204.29,1529.6,204.29,1529.6Z"/><polygon class="cls-32" points="214.76 1518.47 204.04 1530.02 179.94 1509.47 191.02 1496.62 214.76 1518.47"/><path class="cls-34" d="M181.66,1496.62c11.76-13.33,106.65-110.43,106.65-110.43,48.4-55.79,67.33-57.26,67.33-57.26a280.31,280.31,0,0,1,28.84,2.53c2.38.33,10.15.24,12.64.65,30.82,5,31.68,1.48,20.42,26.73-18.53,41.51-204.31,161.28-204.31,161.28Z"/><path class="cls-33" d="M615.16,1547.22s15.23,6.64,28.64,8.47,45.71-3.5,54.88,5.31-10.6,34.31-40.35,38.11-67.87,10.1-71.58,6.13-6.8-39.64-3.72-50.38S615.16,1547.22,615.16,1547.22Z"/><polygon class="cls-32" points="608.77 1531.45 615.16 1547.22 583.03 1554.86 578.18 1537.97 608.77 1531.45"/><path class="cls-34" d="M560.54,1332.08s-13.08-49.88,17.64,67.63c0,0,32.37,125.39,35.93,132.52.85,1.69-40.58,9.28-41.34,9-7.21-2.88-71.71-163.53-87.74-193.2C470.91,1321.88,560.54,1332.08,560.54,1332.08Z"/><path class="cls-34" d="M560.55,1332.08l-64.47,37.09s-25.37-31.16-42.17-43.87c-1.73-1.29-3.46-2.61-5.21-4q-3.72-2.8-7.44-5.74c-1.8-1.41-3.63-2.85-5.4-4.28-12.28-9.8-23.76-19.7-30.09-27-18.26-21.09,21.72-154.41,72.21-95C478,1189.34,545.67,1252.89,560.55,1332.08Z"/><path class="cls-34" d="M474,1173.53s-31.77,146-63.08,195.65c0,0-53.19-17.93-77.62-27.5,0,0-2.37-105.51,0-133.08C335.44,1182.89,474,1173.53,474,1173.53Z"/><path class="cls-35" d="M326.86,1224.73s13.39-131.18,2.3-192.22c-7.38-40.58,3.29-106.43,27.62-142A86.46,86.46,0,0,1,366,879.14s49.11,13,54,16.43c.7.49,6,5.19,12.73,13.42h0c14,17.15,34.61,48.17,36.62,78.29,1.45,21.91,2.66,42,4,62.79.41,6.32.84,12.7,1.3,19.2,1.1,15.63,2.35,32,3.92,50,.87,10,7.63,41.85,12.08,71.2Z"/><path class="cls-36" d="M448.7,1321.33q-3.72-2.8-7.44-5.74c-1.8-1.41-3.63-2.85-5.4-4.28,2.58-8.22,16.59-45.72,22.08-72.5C457.94,1238.81,462,1280.52,448.7,1321.33Z"/><path class="cls-37" d="M474.67,1069.27s-28.59,43.44-33.65-63.84l32.35,44.64C473.78,1056.39,474.21,1062.77,474.67,1069.27Z"/><path class="cls-32" d="M366,879.13s5.12-28.37-.85-44.87S414,862.06,414,862.06s0,2.3.09,5.73c.07,2.68.22,6.05.46,9.6.5,6.75,1.39,14.11,3.06,18.33C421.25,905,366,879.13,366,879.13Z"/><path class="cls-32" d="M445.24,779.71s11.56,21.77,5.74,25.1c-4.82,2.76,5.45,24.11,6.79,27.6s-8.72,6-10.87,8.17-8.65,29.73-16.93,30.51S384.52,858.66,374.45,848s-18.09-58.32-11.18-78.38S424.84,741.68,445.24,779.71Z"/><path class="cls-38" d="M447.54,784.42s12.1-23.34-9.48-40.87-61.78,12.72-66.3,13.85-31.3,9.68-17.86,49.51c12.2,36.14,13.76,40.22,13.76,40.22s7.41-24,12.13-27.4c7.36-5.27,23.41-3.88,23.41-3.88s-7.52-20.37,4.46-23.17S435.47,779.85,447.54,784.42Z"/><path class="cls-32" d="M390.54,804.13c-1-2.8-4.37-14.8-14.7-7.83s6.21,29.65,8,30S399.26,827.64,390.54,804.13Z"/><path class="cls-39" d="M414.52,877.39c-17-4.57-31.56-23-31.56-23,4.64,4.54,31.1,13.42,31.1,13.42C414.13,870.47,414.28,873.84,414.52,877.39Z"/><polygon class="cls-40" points="604.25 1031.73 576.58 1174.19 485.14 1156.43 509.24 1013.27 604.25 1031.73"/><polygon class="cls-41" points="597.39 1038.66 572.81 1165.19 491.61 1149.42 513.01 1022.27 597.39 1038.66"/><polygon class="cls-40" points="571.64 1036.93 573.37 1028.05 540.54 1021.67 537.53 1030.3 571.64 1036.93"/><path class="cls-32" d="M593.56,1131.74s-4,1.68-6.14,1.56c0,0-3.84-.52-6.59-.72a18.76,18.76,0,0,0-2.13-.06c-2.07.12-6.57,1-11.61-.1S541.53,1121,541.53,1121l2.43-12.68.59-12.19s29.91-10.16,34.73-9.69a11.36,11.36,0,0,1,1.36.22c4,.8,6.7,3.09,8.78,3.75.75.25,8.13,3.22,8.86,5.48,1,3.15.43,5.73-1,7.49,0,0,1.69,6.24-.08,10.21,0,0,1.75,5.71-1.87,10C595.34,1123.61,596.46,1129.6,593.56,1131.74Z"/><path class="cls-32" d="M551.44,1093.33s-2.84,15.87-9.91,27.67c0,0-22.93-.91-38.84-3.28-37.94-5.67-53.85-10.83-63.37-19.81-17.12-16.14-64.83-108.73-64.83-108.73l46.19-29.25,32.49,72.71c3.54,7.16,10,17.82,14.68,27.33,6.1,12.45,33.32,23.09,45.48,26.46C513.33,1086.43,536.61,1093.33,551.44,1093.33Z"/><path class="cls-35" d="M443.71,999.46l-52.51,27.3s-10.41-20.15-13.46-26.7c-8.74-18.78-22.27-47.16-5.26-59.16C409.19,915,425,958,434,981.52,436.77,988.78,443.71,999.46,443.71,999.46Z"/><rect class="cls-42" x="905.17" y="378.56" width="44.49" height="187.07"/><rect class="cls-43" x="905.17" y="378.56" width="44.49" height="187.07" transform="translate(1399.51 -455.32) rotate(90)"/><path class="cls-10" d="M276.22,538.3a106.14,106.14,0,1,0-90.8,191.89c2.16,1,4.34,2,6.53,2.83A106.15,106.15,0,0,0,276.22,538.3Zm26.54,130a79.49,79.49,0,0,1-101.08,40c-1.64-.65-3.28-1.35-4.9-2.12a79.58,79.58,0,1,1,106-37.9Z"/><path class="cls-44" d="M160.33,671.19,136.8,683.52a106.29,106.29,0,0,1,16.73-122.07l19.34,18.21a79.71,79.71,0,0,0-12.54,91.53Z"/><path class="cls-45" d="M201.68,708.3,192,733c-2.19-.86-4.37-1.81-6.53-2.83a105.63,105.63,0,0,1-48.62-46.67l23.53-12.33a79.2,79.2,0,0,0,36.45,35C198.4,707,200,707.65,201.68,708.3Z"/><path class="cls-45" d="M222.27,740.07A105.16,105.16,0,0,1,192,733l9.73-24.72a79.26,79.26,0,0,0,22.73,5.29Z"/><polygon class="cls-45" points="198.21 810.03 0 810.03 0 806.1 194.27 806.1 194.27 722.13 198.21 722.13 198.21 810.03"/><rect class="cls-10" y="765.09" width="104.33" height="23.64"/><path class="cls-32" d="M1066.92,1093.62s5.81,13.24,11.36,11.58,13.81-1.17,16.39-.89c3.47.38,14.73-2.26,14.06,2s-18.38,5.2-22.09,6.12,9.62,10.34,10.55,14-17.68,24.62-26,17.1-11.75-21-13.5-22.06-9.38-11.8-9.38-11.8Z"/><path class="cls-32" d="M1095.7,1124.13s23.77,24.7,23.86,27.68-1.46,4.2-3.79,2-23.72-23.19-23.72-23.19,22.78,34,23.41,36.39c.36,1.41-2.47,3.93-3.84,2.86s-26-33.43-26-33.43,21.21,31.77,21.1,34c-.1,1.92-3.28,3.63-5,1.39s-23.23-30.6-23.23-30.6,13.87,24.13,12.64,26c-.76,1.13-3.11,3.41-6.48-2.93s-13-20.43-13-20.43Z"/><path class="cls-33" d="M772.29,1557.73s-9.12,6.5-14.17,11.06-11.91,9.51-16.12,21.14,2.45,20.22,13.84,20.92,28.86-7.91,30.57-18.34,15.07-9.11,16.81-16.46-.59-16.4-.59-16.4Z"/><path class="cls-46" d="M773.81,1549.18l-1.52,8.55s4.69,8.68,30.34,1.92l-1.32-8.42Z"/><path class="cls-33" d="M802.63,1559.65s-5.77.76-9.89,1.41-12.27-4.61-20.45-3.33l2.52,10.39S802.06,1563,802.63,1559.65Z"/><path class="cls-33" d="M936.14,1556s9.12,6.51,14.17,11.06,11.92,9.52,16.12,21.15-2.45,20.22-13.84,20.92-28.86-7.91-30.56-18.34-15.07-9.12-16.82-16.47.59-16.39.59-16.39Z"/><path class="cls-46" d="M934.63,1547.48l1.51,8.54s-4.69,8.69-30.34,1.93l1.32-8.42Z"/><path class="cls-34" d="M946.9,1353.11c0,18.78-2.69,195.92-2.69,195.92-1.87,6.26-37,8.31-43.21,5.18s-5.17-178.8-6.32-197.73-16.37-158.22-21.86-157.59-36.51,131.83-40.9,146.23-21.63,208.09-21.63,208.09c-21.4,7.45-43.28.9-43.28.9s8.18-196.17,8.19-219.47c0-8.64,2.55-15.18,5-61.15,1.87-35,11.62-106.82,18.14-156.22.24-1.75.46-3.44.67-5.06,1.28-9.61,2.24-16.68,2.7-20.06.2-1.47.31-2.25.31-2.25q2.63-1.22,5.51-2.25c45.84-16.46,134.25,1,134.25,1s.05.43.15,1.25c.12,1,.3,2.55.54,4.57.51,4.35,1.27,10.84,2.14,18.36,0,.06,0,.11,0,.17,0,.22,0,.46.08.68,3.08,26.79,4.61,41.51,7,70.1C952.27,1190,946.9,1334.33,946.9,1353.11Z"/><path class="cls-35" d="M900.55,836.18s75.08,15.94,81.33,36.8,18.41,69.86,35.32,123.16c10.11,31.87,61.5,104.49,61.5,104.49s-29.4,21.67-29.4,18.75-69.24-95.32-70.08-106.58-21.81-68.88-21.81-68.88-9.94,110.76-9.94,127.87,4.31,69.69,4.31,69.69-30.19,25.07-84.2,22.25c0,0-76.32.32-75.27-29.69.93-26.46,7.45-184.92,5.78-185.76S766.45,985,769.37,992.21s80.48,33.15,80.48,33.15,2.27,8.36-9.78,27.28c0,0-115.86-33.85-116.28-41S772,866.84,787.86,859.63c22.85-10.38,83.4-24.23,83.4-24.23Z"/><path class="cls-33" d="M905.8,1558s5.78.76,9.89,1.4,12.27-4.61,20.45-3.33l-2.51,10.39S906.37,1561.31,905.8,1558Z"/><path class="cls-32" d="M903.22,838c-.37,18.34-42.47,37.64-42.47,37.64s-10.23-34.27-6.68-36.06c1.39-.7,1.83-1.13,2-4.24a65.37,65.37,0,0,0-.2-8.32c-.11-1.3-.21-2.13-.21-2.13s5.07-5.35,11.53-11.73c11.27-11.15,27.42-27.66,27.44-22,0,.3.44.45.35.87C892.26,804.79,903.22,838,903.22,838Z"/><path class="cls-39" d="M887.44,807.05h0c-.07.11-1.57,2.36-4.15,5.59-5.45,6.86-15.69,18.12-27.21,22.65a65.37,65.37,0,0,0-.2-8.32,18.41,18.41,0,0,1-3.53-.43,110.16,110.16,0,0,1,7.72-11.3l7.13-2.13Z"/><path class="cls-32" d="M894.26,793.6c-3.07,6.69-6,11.53-6.82,13.45h0a23.45,23.45,0,0,1-4.15,5.59c-5.85,6.31-16.72,14.62-27.41,14.33a18.41,18.41,0,0,1-3.53-.43c-4.32-.94-9.42-2.95-12.22-8.44C818,774.74,834,739.27,834,739.27s60.56-17.12,70,1.11C910.71,753.17,901.48,777.9,894.26,793.6Z"/><path class="cls-47" d="M834,739.27s-5.63-.31-7-11,12.23-17.79,12.23-17.79a77.09,77.09,0,0,1,23.16-7.5c9-1.25,31.06-2.66,36.23,3.25,0,0,12.57-2.92,16,18,5.44,33.11-18.52,65.27-18.52,65.27s.21-21.64-4.56-24.5-8.89,4-8.89,4l-9.76,1.74s13.83-26.73-4-27.92S844.2,741.13,834,739.27Z"/><path class="cls-32" d="M882.91,760.31c.93-9.53,18.17-13.17,17-3.18s-9.64,19.59-13.56,19.25S882.21,767.58,882.91,760.31Z"/><polygon class="cls-40" points="888.47 957.35 860.25 1102.62 767.01 1084.51 791.58 938.53 888.47 957.35"/><polygon class="cls-41" points="881.47 964.42 856.41 1093.45 773.6 1077.36 795.42 947.71 881.47 964.42"/><polygon class="cls-40" points="855.22 962.65 856.98 953.6 823.5 947.09 820.43 955.89 855.22 962.65"/><path class="cls-48" d="M870.2,1024.19s7.13-.2,9.31-.51.74,4.32-1.79,5.2S870.2,1024.19,870.2,1024.19Z"/><path class="cls-32" d="M874.37,1058.24a14.44,14.44,0,0,1-4.64.42s-2.72-.82-4.69-1.28a14.3,14.3,0,0,0-1.54-.3,26.72,26.72,0,0,1-8.41-1.41c-3.52-1.38-15.49-7.51-15.49-7.51L843,1037l2.58-8.81s20.23-5.39,23.66-4.48a8.49,8.49,0,0,1,1,.31c2.83,1,4.5,3,5.92,3.74.53.27,5.53,3.28,5.79,5a5.7,5.7,0,0,1-1.58,5.32s.51,4.72-1.24,7.4c0,0,.6,4.34-2.52,7C876.6,1052.56,876.72,1057,874.37,1058.24Z"/><path class="cls-35" d="M849.85,1025.36s-3.75,20.31-14.55,33.39c0,0-80.31-32.66-90.44-36.64s36.82-128.76,36.82-128.76l34.55,11.76-18.56,35.1s-9.19,19.66-28.3,52C769.37,992.21,781.13,1003.38,849.85,1025.36Z"/><path class="cls-49" d="M897.79,916s-2.12,38.86,17.31,38.86,17.67-35,18-38.86Z"/><polygon class="cls-5" points="901.25 916.01 930.26 916.01 930.26 910.11 901.25 916.01"/><path class="cls-32" d="M1510.7,993.07s-6.61-14.28-7.68-16.43-7.39-5.56-14.89-7.45c-7.28-1.84-17.19-5.51-18.32-4.81s-2.46.81-3.8,4a13,13,0,0,0-.76,6.55s-3.49,3.1-2.44,7.23a6.88,6.88,0,0,0-1.19,7.57s-3,3.07-1.29,6.22c0,0,5.84,3.32,7.65,5.18s14.45,7.92,27.46,11.88C1495.44,1013,1509,1012.54,1510.7,993.07Z"/><path class="cls-32" d="M1495.44,1013s16.15,2.82,21.62-.34-.89-19.6-.89-19.6l-10.23-6.17Z"/><path class="cls-50" d="M1489.45,986.15s.25,7.9,1.44,10.08-14.89,5.59-14.89,5.59S1479.86,986.71,1489.45,986.15Z"/><path class="cls-51" d="M1471.83,965.07s17.64,8.56,16.61,11.57a5,5,0,0,1-3.23,3.5l5.66,6.81s1.19,6.63-6.38,6c0,0,1.76,6.08-5.47,4.6,0,0-.63,4.52-4.1,4.43s-14.59-6.08-14.59-6.08-2.11-2.44,1-6.35a6.75,6.75,0,0,1,1.23-7.53s-1-5.48,2.6-9.08c0,0-.37-6.07,4.84-8.64C1470,964.3,1471.09,964.7,1471.83,965.07Z"/><path class="cls-32" d="M1502.49,976.31s-13.45.29-20.72,3.67c-1.65.77-3.1,1.81-3,3.62s2.83,4,8.66,4.17,13.3,3.07,13.3,3.07S1506.77,989.26,1502.49,976.31Z"/><path class="cls-32" d="M1465.24,973s20,6.85,21.38,8.52,4-5.69,2.69-7-16.94-9.69-18.67-10.16S1463.12,967.93,1465.24,973Z"/><path class="cls-32" d="M1474.39,965.15s-31.35-6.42-32-2.6,2.39,4.46,28.08,12C1495.47,981.8,1474.39,965.15,1474.39,965.15Z"/><path class="cls-33" d="M1689.82,1608.11s-10,14.94-24,18.17-27.82,8.37-27.92,17.21,40.52,14.12,56.55,5.2c23.94-13.3,26.37-9.29,29-15.94s-3.18-24.44-3-26.55C1720.66,1603.58,1689.82,1608.11,1689.82,1608.11Z"/><path class="cls-46" d="M1691.37,1600.73s-1.83,7.22-1.55,7.38,31.58,3.88,30.63-1.91c-.77-4.7-1.87-9.81-1.87-9.81Z"/><path class="cls-33" d="M1795.18,1607.12s-7.12,14.29-19.3,19.16c-13,5.21-23.45,11.19-23.21,19.81s31.81,17.35,54.79.81c14.51-10.45,19.11-10.5,21.44-17.08s-4-23.68-4-25.74C1825.05,1601.52,1795.18,1607.12,1795.18,1607.12Z"/><path class="cls-46" d="M1794.83,1599.69s.08,7.29.35,7.43,30.53,2.63,29.76-3a46.71,46.71,0,0,0-2.93-9.95Z"/><path class="cls-52" d="M1683.88,1162.92s-28.12,124-34.54,161.78c-5.46,32.15-9.82,65.63-7.2,88.84,3.24,28.73,43.92,177.64,42.22,186.07s48.49,3.3,48.49,3.3-36.87-168.06-30.69-199c4.58-22.9,44.68-175,50.83-167.2s13.76,143.55,18.31,166.09,18.53,200.59,18.53,200.59,31.24,4.61,39.58-2.45c0,0,3.8-152,.9-194.29-1.1-16.1,18.87-193.05-6.74-264.29C1810,1104.73,1683.88,1162.92,1683.88,1162.92Z"/><path class="cls-53" d="M1500.28,1019.07s97.39,21.59,116.77,16.83c9-2.21,20.76-14.58,32-29.11,3.69-4.79,7.32-9.82,10.77-14.79v0c13.75-19.86,24.53-38.9,24.53-38.9s40.67-47.66,8-68.9c0,0-11.84-4.44-22.72,7.22s-23.65,36-26.5,42.25-42.8,63.83-44.87,65.12-19.52-3.29-33.52-4.45c-22.81-1.91-57-10.79-57-10.79Z"/><path class="cls-54" d="M1722.9,873.55s-41.86,8.65-46.83,13.05c-5.39,4.68-14.9,50.53-15.47,63.3s5.05,66.13,10.44,86,4.4,117.72,1,145.25c0,0,84.28,23.94,167.15,13.15,0,0-13.89-102.94-10.57-130.16,4.25-34.88,14.47-115.23,14.47-115.23s-7.33-56-14.71-62.22-58.23-13.13-58.23-13.13Z"/><path class="cls-32" d="M1740.21,744.11s-50.36-18.64-47.21,48.28,15,73.72,48.07,64.37,35.9-51.58,40.22-71.89S1756.67,747,1740.21,744.11Z"/><path class="cls-32" d="M1716.31,882.61s10.37,6.85,49.66-10.46c0,0-1.11-26.94,6.6-52.1s-52.73,33.55-52.73,33.55c.63.45.75,3,.39,6.47a70.58,70.58,0,0,1-1.94,10.4C1716.08,878.88,1716.31,875.26,1716.31,882.61Z"/><path class="cls-52" d="M1774.29,818.06s.14-17.88-7.29-19.52-8.42-7.59-8.42-7.59l-4.26,1s.78-3.15-6.31-7.31-49.48-.5-54.8-6.6,2.39-42.32,14-45.87,38.44-3.23,63,3.66c0,0,18.64,4.7,20,26.64C1791.11,776.66,1780.33,808.36,1774.29,818.06Z"/><path class="cls-39" d="M1718.29,870.47c39-6.56,44.87-28.76,45-29.11-15.17,19.57-43,18.71-43,18.71A70.58,70.58,0,0,1,1718.29,870.47Z"/><path class="cls-55" d="M1720,891.4s-7.1,10.48-11.39,37.4-3.57,73.28-3.57,73.28l9.89,1.2s15-94.56,12.38-111Z"/><path class="cls-32" d="M1758.58,791c2.23-5.9,14.78-5.16,13.5,4.19s-11.67,23.75-15.83,21.05S1755.51,799.08,1758.58,791Z"/><path class="cls-53" d="M1675.53,886.56s-23.78,31.46-15,113.8c15.92,148.78-25.77,387.61-25.77,387.61l43,13.47s41.11-305.32,30.64-416.12c-4.77-50.5-18.92-67.3,3.41-109.36C1711.85,876,1690.1,877.06,1675.53,886.56Z"/><path class="cls-53" d="M1781.72,875.26S1713.63,944,1708.3,996.18s-14,405.26-14,405.26l162.1-9.44s-14.9-186.41-18.54-209.72-11.15-157.21,5.25-219.33c8.82-33.38-1.67-75.72-21.81-80.34S1781.72,875.26,1781.72,875.26Z"/><path class="cls-53" d="M1804.73,884.17s-26.22,7.23-11.8,55.36c11.31,37.69,12.83,45.79,12.83,45.79l60.51-15.12s-17.74-82.8-46.69-87.25C1819.58,883,1810.36,881.63,1804.73,884.17Z"/><polygon class="cls-40" points="1606.36 1138.91 1724.97 1261.65 1803.75 1185.53 1688.22 1059.81 1606.36 1138.91"/><polygon class="cls-41" points="1617.58 1141.35 1722.91 1250.36 1792.88 1182.75 1690.28 1071.1 1617.58 1141.35"/><polygon class="cls-40" points="1641.85 1123.14 1634.45 1115.48 1662.74 1088.15 1671.24 1094.74 1641.85 1123.14"/><path class="cls-56" d="M1766,864.7s-20.54,12.39-40.87,15.18l10.81,17.25,34.25-23.58Z"/><path class="cls-56" d="M1718.29,870.47s2.17,7.1,6.8,9.41L1714.94,894l.37-18.78Z"/><path class="cls-55" d="M1725.09,879.88l-8,11.21s5.09,6.44,16,1.56Z"/><path class="cls-56" d="M1649,1006.78h0c3.69-4.79,7.32-9.82,10.77-14.79v0s-1.3-36.28-.17-46.7C1659.64,945.28,1647.79,984.36,1649,1006.78Z"/><path class="cls-56" d="M1816.12,982.73s7.9,51.45,7.35,54.75S1859.26,1027.15,1816.12,982.73Z"/><rect class="cls-57" x="1673.32" y="964.32" width="19.11" height="29.17" transform="translate(3365.74 1957.82) rotate(180)"/><path class="cls-32" d="M1758.26,1104.19s-1.75,3.46-4.66,4.63c-5,2-13-1.18-16.15,6s16.91,24.06,21.93,24.93,12.13-7.33,16.77-23.18S1758.26,1104.19,1758.26,1104.19Z"/><path class="cls-32" d="M1738.84,1112.57a218.91,218.91,0,0,0-17.14,17.5c-7.47,8.6-14.67,20.14-13.38,22.32,2.86,4.84,9.81-6,17.8-14,7.36-7.37,6.14-6.08,6.14-6.08s0-.78-6.41,8.87c-6.91,10.39-12.93,21.77-11.29,24.3.79,1.23,4,4.24,5.55-.72-1.38,2.32-1.62,1.75-.7,2.46,4.78,3.64,17.33-9.94,22.32-15.34-3.8,4.17-6.14,7.66-1.83,8,4.93.41,21.8-19.64,28.54-26.2C1775.79,1126.55,1738.84,1112.57,1738.84,1112.57Z"/><path class="cls-53" d="M1801.6,887.4c-5.49,2.12-7.57,11.87-5.32,40.1s12.2,41.23,15.91,47.77,24.11,46.79,20.44,52.09-38.3,39.46-40.3,42.24-40.67,37.78-40.67,37.78l19.68,27.51s83.49-65.21,90-71.72,26-20.19,18.78-42.94c-7.32-23.12-20.47-77.23-22.81-81.46S1837.89,873.34,1801.6,887.4Z"/></g></g></g></svg>