<svg xmlns="http://www.w3.org/2000/svg" xmlns:xlink="http://www.w3.org/1999/xlink" viewBox="0 0 884.79 668.82"><defs><style>.cls-1{fill:#effff5;}.cls-2{fill:#b7e4e6;}.cls-3{fill:#595959;}.cls-4{fill:#226467;}.cls-5{fill:#ea9483;}.cls-6{fill:#9e1a00;}.cls-7{fill:#b02286;}.cls-8{fill:#9e4800;}.cls-9{fill:#919090;}.cls-10{fill:url(#linear-gradient);}.cls-11{fill:url(#linear-gradient-2);}.cls-12{fill:url(#linear-gradient-3);}.cls-13{fill:#c8ffff;}.cls-14{fill:#91ffff;}.cls-15{fill:#6dbfbf;}.cls-16{fill:#026d71;}.cls-17{fill:#381a3f;}.cls-18{fill:#573a5e;}.cls-19{fill:#633029;}.cls-20{fill:#3c0849;}.cls-21{fill:#8e4f3a;}.cls-22{fill:#510b5e;}.cls-23{fill:#2b374d;}.cls-24{fill:#4c4c73;}.cls-25{fill:#002b32;}.cls-26{fill:#013c66;}.cls-27{fill:#54a3c8;}.cls-28{fill:#42004a;}.cls-29{fill:#6e778f;}.cls-30{fill:#487065;}.cls-31{fill:#0f1f42;}.cls-32{fill:#603e6b;}.cls-33{fill:#939ebf;}.cls-34{fill:#b3c7ff;}.cls-35{fill:#8b7fbf;}.cls-36{fill:#464459;}.cls-37{fill:#827ea6;}.cls-38{fill:#dce4ff;}.cls-39{fill:#d0dcff;}.cls-40{fill:#ecf1ff;}.cls-41{fill:#560d68;}.cls-42{fill:#12113f;}.cls-43{fill:#615697;}.cls-44{fill:#494171;}.cls-45{fill:#1e403d;}.cls-46{fill:#6c7c8d;}.cls-47{fill:#18287d;}.cls-48{fill:#536460;}.cls-49{fill:#60114d;}.cls-50{fill:#162a4d;}.cls-51{fill:#390763;}.cls-52{fill:#542360;}.cls-53{fill:#34173a;}.cls-54{fill:#5b6d7e;}.cls-55{fill:#75b8bf;}.cls-56{fill:#3b8079;}.cls-57{fill:#7cad98;}.cls-58{fill:#3c4959;}.cls-59{fill:#935e9f;}.cls-60{fill:#1b2b80;}.cls-61{fill:#3e3d4d;}</style><linearGradient id="linear-gradient" x1="217.96" y1="647.73" x2="117.26" y2="-104.59" gradientUnits="userSpaceOnUse"><stop offset="0.04" stop-color="#a9bfff"/><stop offset="1" stop-color="#76ffff"/></linearGradient><linearGradient id="linear-gradient-2" x1="63.67" y1="608.38" x2="78.39" y2="685.5" xlink:href="#linear-gradient"/><linearGradient id="linear-gradient-3" x1="275" y1="570.64" x2="291.46" y2="656.86" xlink:href="#linear-gradient"/></defs><title>doctorb</title><g id="Layer_2" data-name="Layer 2"><g id="_Layer_" data-name="&lt;Layer&gt;"><path class="cls-1" d="M693.18,418.71c65.4-37.88,106.57-93,106.57-154.41,0-114.23-142.56-206.82-318.41-206.82S162.92,150.07,162.92,264.3c0,94.26,97.09,173.8,229.85,198.72-20.28,15.56-31.89,33.64-31.89,52.93,0,58.43,106.65,105.81,238.21,105.81S837.3,574.38,837.3,516C837.3,472.35,778,434.91,693.18,418.71Z"/><rect class="cls-2" x="613.37" y="25.45" width="139.06" height="198.06"/><rect class="cls-3" x="636.52" y="33.34" width="92.77" height="6.71"/><polygon class="cls-4" points="625.65 111.15 638.99 116.62 641.34 91.23 625.65 111.15"/><path class="cls-4" d="M720.46,162.11c-6.52-16.3-32.71-22.91-32.71-22.91s12.72-7.35,6.9-16.22-19-8.15-23.91-11.61S664.22,96,664.22,96l.82-4.24s10.59.23,12.37-4.58c1.24-3.39-1.36-8.37-3-11h0l-.95-4.54s3.8-5.16,1.09-4.65-7.34-5.67-17.66-10.83-19.29-.82-24.45,3.8,0,12.92,0,12.92,8.15,17.51,13.85,27.78,23.5,60.06,16.3,69.19-14.67,38.79-14.67,38.79l66.28-.4S727,178.41,720.46,162.11Z"/><path class="cls-5" d="M718.29,175.68c0,15.91-11.29,26.64-20.52,26.64s-25.68-29.2-25.68-45.11c0-14,12.77-13,22.11-12.61.85.05,1.66,0,2.44.1C704.6,145.23,718.29,159.79,718.29,175.68Z"/><path class="cls-6" d="M718,171.4c0,.55.07,1.09.07,1.64,0,15.91-11.28,26.62-20.51,26.62-8.56,0-23.33-25.12-25.42-41.45.64,16.09,16.6,44.1,25.64,44.1,9.23,0,20.52-10.72,20.52-26.62A34.1,34.1,0,0,0,718,171.4Z"/><path class="cls-7" d="M696.77,144.71h-.13c-.78-.06-1.59,0-2.44-.1h-.15c5.14,3.71,11.46,9.32,11.46,10.72,0,1.11-4.9,3.27-10.51,4.64l.39,1.58c3.54-.86,11.75-3.19,11.75-6.22C707.14,152.8,700.3,147.32,696.77,144.71Z"/><path class="cls-8" d="M711.5,176.5c-3.27-3.53-11.42-9.23-16.31-6.79,3-2.44,7.61,1.63,10.33-.54,2.27-1.82-11.08-3.83-15.48-4.44,2.34.21,7,.1,8.41-3.71,1.24-3.36-2.34-7.55-5.09-9.11a9,9,0,0,0-1.76-.75,17.09,17.09,0,0,0-5.43-.63l.05,0,3.81-.59,3-.86s-1.09-2.17-4.35-1.9-10.45,4.5-10.84,5a3,3,0,0,0-.49,2c0,11.17,2,19.58,8.38,29,2,3,4.27,6,7.34,7.92,4.17,2.63,13.09,2.68,15.72-2.57C709.86,186.28,714.75,180,711.5,176.5Z"/><path class="cls-3" d="M748.31,214.81H617.49V28.44H748.31Zm-129.19-1.63H746.68V30.07H619.12Z"/><rect class="cls-9" x="698.05" y="111.37" width="43.88" height="5.26"/><rect class="cls-9" x="670.39" y="44.3" width="71.53" height="5.26"/><rect class="cls-9" x="670.39" y="52.93" width="52.65" height="5.26"/><rect class="cls-9" x="711.29" y="129.87" width="33.35" height="5.26"/><rect class="cls-10" x="36.22" width="269.09" height="590.24"/><polygon class="cls-11" points="84.48 590.24 43.51 590.24 43.51 629.96 58.22 629.96 84.48 590.24"/><polygon class="cls-12" points="299.23 590.24 258.26 590.24 280.07 632.05 299.23 629.96 299.23 590.24"/><rect class="cls-13" x="68.36" y="44.15" width="103.02" height="319.74"/><rect class="cls-13" x="182.16" y="44.1" width="103.02" height="319.74"/><rect class="cls-14" x="68.34" y="150.9" width="103.03" height="7.72"/><rect class="cls-14" x="182.14" y="150.9" width="103.03" height="7.72"/><rect class="cls-14" x="68.34" y="241.51" width="103.03" height="7.72"/><rect class="cls-14" x="182.14" y="241.51" width="103.03" height="7.72"/><path class="cls-15" d="M74.67,387.8H176v185H68.34l102.42-3.24V391.17Z"/><polygon class="cls-15" points="280.07 387.8 187.21 387.8 187.21 572.8 285.19 572.8 191.98 569.21 194.45 391.23 280.07 387.8"/><rect class="cls-15" x="132.59" y="457.48" width="12.9" height="12.9"/><rect class="cls-15" x="209.03" y="457.48" width="12.9" height="12.9"/><rect class="cls-15" x="176.02" width="3.29" height="382.56"/><ellipse class="cls-16" cx="431.26" cy="642.42" rx="26.29" ry="431.26" transform="translate(-213.54 1070.12) rotate(-89.68)"/><path class="cls-17" d="M344.89,622.09c0,7.08,4.59,12.82,10.26,12.82s10.26-5.74,10.26-12.82-4.6-12.81-10.26-12.81S344.89,615,344.89,622.09Z"/><rect class="cls-17" x="350.76" y="606.2" width="106.02" height="5.71" transform="translate(807.55 1218.11) rotate(180)"/><path class="cls-18" d="M355.15,632.05c4.12,0,7.47-4.47,7.47-10s-3.35-10-7.47-10-7.47,4.47-7.47,10S351,632.05,355.15,632.05Z"/><path class="cls-17" d="M446.62,619.14c0,7.07,4.59,12.81,10.26,12.81s10.25-5.74,10.25-12.81-4.59-12.82-10.25-12.82S446.62,612.06,446.62,619.14Z"/><path class="cls-18" d="M456.88,625.42c4.11,0,7.46-4.36,7.46-9.73S461,606,456.88,606s-7.47,4.37-7.47,9.74S452.76,625.42,456.88,625.42Z"/><path class="cls-19" d="M537.29,611.88c.5,2.19-6.21,4.82-.68,8.17,1.86,1.13,4.43-.56,11.35,2.49,4.66,2.05,13.11,11,17.76,12a26.45,26.45,0,0,0,16-1.69c-4.52-2.73-8.25-2-13-4.89s-11.51-27.45-26.36-38.22a22,22,0,0,1-3.26-3.16c-5.44,2.78-10.79,5.6-16.19,7.4C531.43,604.24,537.17,611.32,537.29,611.88Z"/><path class="cls-20" d="M542.47,610.45c-1.82-1.1-4.54-.71-7.09-.59.14,2.26-6.07,6.72-.69,10S546.62,640,546.62,640l4-.78s-11-19.35-5.62-17.45,15.17,18.4,15.17,18.4l21.58-7.22-1.92-2.29c-4.45-2.69-8.14-2-12.8-4.78C557.07,629.72,550.38,613.77,542.47,610.45Z"/><path class="cls-21" d="M548.55,569.56c-5.34.32-5.62.79-11,1.43,1.52,10.64,2.24,19.17.93,21.48-1,1.8-2.15,3.58-3.25,5.29-3.09,4.81-5.86,9-4.82,11.08.63,1.25,7.44-.08,9.94,6,3.07,7.49,4.06,22.11,4.06,22.11l20.82,4.16s3.19-1.43-1.52-6.08-8.6-6.16-10.12-11.22-2.65-24-2.65-40.6C550.93,581.51,548.42,572.33,548.55,569.56Z"/><path class="cls-22" d="M566.53,639.18h0a24.78,24.78,0,0,0-10.39-11.89l-5,3.4c-5.78-7.06-5.69-18.43-9.34-25.63-.81-2.43-3.45-5.45-6.57-7.3-3.08,4.81-5.86,9-4.82,11.08,1.41,2.79,1.28,27.86,1.28,27.86h3.46s-2.08-20.69,1.39-21.92,6.14,24.73,6.14,24.73l23.73,2.84S567.5,641.75,566.53,639.18Z"/><path class="cls-23" d="M353.84,486.72l-3.33-17.78-22.38-11.46,12.64-102.76s-35.47,13.68-36.66,30.55c-1.81,25.43,13.8,81.57,13.8,81.57Z"/><path class="cls-24" d="M376.81,352.37l-23.69.28a40.3,40.3,0,0,0-38.63,50l13.64,54.79h87.43l2-63.53A40.31,40.31,0,0,0,376.81,352.37Z"/><rect class="cls-17" x="400.3" y="466.13" width="10.1" height="145.78" transform="translate(810.71 1078.04) rotate(180)"/><polygon class="cls-25" points="328.13 457.48 349.36 468.94 497.73 469.42 418.9 454.89 328.13 457.48"/><polygon class="cls-23" points="494.87 482.53 353.83 486.72 349.36 468.94 500.11 464.74 494.87 482.53"/><rect class="cls-26" x="682.9" y="363.86" width="10.77" height="283.16" transform="translate(1376.57 1010.89) rotate(180)"/><rect class="cls-26" x="582.46" y="361.66" width="10.77" height="285.36" transform="translate(1175.68 1008.69) rotate(180)"/><rect class="cls-27" x="587.57" y="361.66" width="10.77" height="285.36" transform="translate(1185.91 1008.69) rotate(180)"/><rect class="cls-27" x="689.96" y="360.42" width="10.77" height="286.6" transform="translate(1390.69 1007.45) rotate(180)"/><rect class="cls-26" x="209.03" y="369.97" width="10.24" height="277.06" transform="translate(428.29 1017) rotate(180)"/><rect class="cls-26" x="274.95" y="371.57" width="10.24" height="275.46" transform="translate(560.14 1018.6) rotate(180)"/><path class="cls-28" d="M402.23,157.79s8.06,1.94,11.87,7.4,8,27.43.92,40.61-18.81,16.36-14.18,21a5.66,5.66,0,0,0,8.65,0s.62,9.17-6.29,8.17c0,0,.91,5.09,3.46,5.09,0,0,.54,4.37-4.46,3s-8.22,2-6,4.18-24.29,11.59-24.29-6.27S407,183,409.29,176.9s-3.18-12.45-3.18-12.45Z"/><path class="cls-28" d="M334.75,211.86c4-8.9,1.89-13.1,12.8-26.55s6.36-17.41,13.17-24.23S392,152.45,397.39,155s8.72,12.37,8.72,12.37l-25.18,74.15H349.24Z"/><path class="cls-29" d="M391.22,239.37s22.49,15.3,30.87,24.82c6.06,6.9,30.74,31.05,44.22,52.71,5,8.08-15.54,17.6-15.54,17.6l-44.66-41.81Z"/><path class="cls-30" d="M417.39,411.43c-14.48-8.92-13.62-40-13.62-40-5-22.6,8.83-74.92,3.25-92.2s-14.94-39.86-14.94-39.86l-62.2-2.11s4.82,39.5-1.46,45.48c0,0,18.15,87.08,18.15,100.37,0,8.22-5.42,31.55-10.71,45.66C369.76,431.88,387.72,428.59,417.39,411.43Z"/><path class="cls-31" d="M531.38,453.55c-7-18.89-90.29-38.68-115-44-4.23-.91-11.85-.62-15.93.83h0a23.36,23.36,0,0,0-10.91,8l-7.27,9.7,113.19,36.54s17.7,80.93,40.49,129.67h19.36C548.65,563.82,535.91,465.83,531.38,453.55Z"/><path class="cls-32" d="M479,437l-88.12-20.13-8.75-1.25a56.7,56.7,0,0,0-36.49,7.08L338,427.15s-7.22,23.39,5.16,32.77c4.88,3.7,109.47,9.51,109.47,9.51s51.39,106,70.34,129.1c6.59-.78,15.32-6.3,21.84-6.7C546,566,485.31,438.84,479,437Z"/><path class="cls-31" d="M531.3,453.37l-42.15-2.59,3.45,14.32S513.19,545.62,536,594.36h19.36c-6.69-30.54-19.43-128.53-24-140.81A1.42,1.42,0,0,0,531.3,453.37Z"/><path class="cls-33" d="M376.32,238.86l11.29,42.05.43,78.31s3.7,38,12.44,51.2,94.36,33.86,94.36,33.86l46.31,99.12,40.6-7.46s-43.41-77.13-54.22-91.66-114.6-29.88-114.6-43.92,1.92-103.6-3-119.78-17.88-41.19-17.88-41.19Z"/><path class="cls-34" d="M328.42,236.7s7.37,40.11,0,47.47L341.87,387.8s-14.34,65.63-10.28,69.68,117.82,18.25,117.82,18.25l-9.09,84.92,66.09-6.28s-19-76.88-33.57-99.48-72.36-35.32-72.36-44.47-12.87-129.51-12.87-129.51L352.15,237Z"/><path class="cls-33" d="M387.74,302.48a1.91,1.91,0,1,1-1.91-1.91A1.91,1.91,0,0,1,387.74,302.48Z"/><path class="cls-33" d="M386.51,291.13a1.92,1.92,0,1,1-1.92-1.91A1.91,1.91,0,0,1,386.51,291.13Z"/><path class="cls-33" d="M389.65,313.34a1.91,1.91,0,1,1-1.91-1.91A1.9,1.9,0,0,1,389.65,313.34Z"/><path class="cls-35" d="M378.81,312.54a1.95,1.95,0,1,1-1.93-1.68A1.82,1.82,0,0,1,378.81,312.54Z"/><path class="cls-36" d="M379.41,311.86c-4.55-13.4-14.49-37.7-28.32-34.37-2.31-5.59-10.74-27.2-9.12-40.36l-3.26-.41c-1.74,14.09,6.87,36.11,9.32,42-10.57,6.34-4.24,31.81-.3,43a1.64,1.64,0,0,0,3.1-1.09c-3.41-9.7-10.07-35.71-.09-39.58,11.68-4.52,21.51,20,25.55,31.88a1.65,1.65,0,1,0,3.12-1.06Z"/><polygon class="cls-35" points="346.47 274.82 349.62 273.79 354.57 280.56 347.84 283.32 346.47 274.82"/><path class="cls-35" d="M352.16,319.54a1.66,1.66,0,1,1-1.61-2.1A1.9,1.9,0,0,1,352.16,319.54Z"/><path class="cls-36" d="M398.56,282.56a2.08,2.08,0,0,1-2-1.91c-1.92-19.47-13.84-40-14-40.21a2.17,2.17,0,0,1,.68-2.92,2,2,0,0,1,2.81.71c.51.87,12.52,21.58,14.54,42a2.1,2.1,0,0,1-1.83,2.32Z"/><path class="cls-36" d="M406.37,284.17a5.77,5.77,0,1,1-5.76-5.76A5.76,5.76,0,0,1,406.37,284.17Z"/><path class="cls-36" d="M408.11,285.91a7.51,7.51,0,1,1-7.5-7.5A7.5,7.5,0,0,1,408.11,285.91Z"/><path class="cls-37" d="M410.42,285.91a7.51,7.51,0,1,1-7.51-7.5A7.51,7.51,0,0,1,410.42,285.91Z"/><polygon class="cls-38" points="375.67 237.28 387.61 280.91 390.09 256.28 385.1 256.28 387.29 237.28 375.67 237.28"/><path class="cls-21" d="M362.71,331.94c-4.81-1.66-20.95,4.08-22.14,4.08l-3.58,1.1c-1.42-.19-5.05-.7-9.41-1.48-1.05,4.77-.69,9.65-.43,14.5,6.66-.52,11.41-1.21,11.84-1.21,6.32,0,16,4.9,16,4.9a45.55,45.55,0,0,0,6.78,1c2.26,0,4.29-4.57,4.29-4.57,3.62,0,2-5,2-5s7,8,10.62,8S367.46,333.57,362.71,331.94Z"/><path class="cls-39" d="M328.42,331.63c-9-1.61-22-.4-24.79-4.08-4.52-6,26.54-45.37,26.54-45.37,5.42-4.64-.29-44.9-.29-44.9-26.21,6.37-64.05,100-49.81,110.57,9.49,7.07,33.77,9.46,47.08,8.41C326.89,351.41,327.38,336.41,328.42,331.63Z"/><path class="cls-40" d="M328.42,331.63c-11.7-1.4-25.75,1.15-26.19-5.64-.19-9.59,21.58-37.66,27.07-44.69,4.2-4.43,1.22-36.51.58-44,1.5,7.78,6.87,40.71,1.09,45.83l.17-.17c-3.71,4.82-31.1,40.51-26.39,44.48C307.83,330.19,320,329.69,328.42,331.63Z"/><path class="cls-21" d="M390.09,220.24a32.6,32.6,0,0,0-9.07,8.84,23.51,23.51,0,0,0-2.56,5,48.41,48.41,0,0,0-2.43,15.2,6.09,6.09,0,0,1-5.35,6c-3.11.35-7,0-10-3-3.57-3.57-8.74-9.54-8.57-15.19.11-3.78,28.49-34.37,28.49-34.37Z"/><polygon class="cls-38" points="352.15 237.03 344.07 236.87 335.55 236.7 357.17 260.51 353.83 263.47 388.04 284.86 387.61 280.91 352.15 237.03"/><path class="cls-19" d="M390.09,220.24l-9.45-17.58s-3.34,3.59-7.73,8.47c1.1,6.6,3.38,13.54,8.12,18A32.76,32.76,0,0,1,390.09,220.24Z"/><path class="cls-21" d="M406.11,164.45a18.15,18.15,0,0,1,6,10.73c1.09,6.9-3.52,14.64-3.52,20.46s-10.8,33.52-24.25,27S371.94,195,371.94,190.26s6.55-21.08,14.54-24.9S406.11,164.45,406.11,164.45Z"/><path class="cls-19" d="M408.31,197.62a10.67,10.67,0,0,0,.24-2c0-5.82,4.61-13.56,3.52-20.46a18.15,18.15,0,0,0-6-10.73,41.92,41.92,0,0,0-12.46-.92C394.19,172.77,401.53,190.59,408.31,197.62Z"/><path class="cls-22" d="M407,165.14c.11-.38-2.54-9.39-13.27-11.14-12.82-2.09-28,7.45-32.62,20.4s-8.82,27.72-21.5,31.4-15,22.36-11,34.08,16.09,8.73,16.09,8.73-7.43-5.12-5.45-7.1c0,0,5.66,9.62,12.06,7.44s9-5.74,9-5.74-8.57-3.64-1.3-9.77c5.06-4.27,10.09-6.23,16.09-13.46,5.73-6.91-2.2-25.42,2.79-38.7a5.6,5.6,0,0,0,3.16,1.17c6.78.71,2.5-7.13,9-14.53C401.06,161.68,406.27,165.16,407,165.14Z"/><path class="cls-22" d="M360.72,161.08s-8,32.39,0,40.39,15.74,2,15.74-1.77-2.09-18.42,1.41-18.42,6.23,1.55,8-4.07S391.15,164,397.93,164s9.09,1.15,9.09,1.15-1.46-9.5-13.27-11.14S368.86,150,360.72,161.08Z"/><path class="cls-21" d="M388.24,201.09c-1,1.87-4.17,2.13-7.08.58s-4.48-4.32-3.48-6.19,4.16-2.13,7.08-.58S389.23,199.22,388.24,201.09Z"/><path class="cls-22" d="M397.81,194.56a93.49,93.49,0,0,0-.87,11.36,6.8,6.8,0,0,1-4.06-.12c2,1.32,4.49.58,4.63.59A93.23,93.23,0,0,0,397.81,194.56Z"/><path class="cls-22" d="M394.57,188.43a13.28,13.28,0,0,0-5.19-3.46c-3-1-7.88,1.73-7.88,1.73s5.13-1.73,7.1-1a12,12,0,0,1,3.7,2.45Z"/><path class="cls-22" d="M401.9,190a13.32,13.32,0,0,1,6.14-1.11c3.12.32,6.53,4.73,6.53,4.73s-4-3.63-6.1-3.76a11.85,11.85,0,0,0-4.37.77Z"/><path class="cls-22" d="M386.33,209.24c6.42,2.89,8.32,2.76,10.66,3.41C393.24,214.61,388.22,212.59,386.33,209.24Z"/><path class="cls-22" d="M391.74,192.54A1.78,1.78,0,1,1,391,190,1.9,1.9,0,0,1,391.74,192.54Z"/><path class="cls-28" d="M385.1,191.32c7.18-4.72,8.2.73,10,1.65-1.53-.38-2.8-2.76-4.57-2.8A22.53,22.53,0,0,0,385.1,191.32Z"/><path class="cls-22" d="M407.3,196.58a1.69,1.69,0,1,1-.66-2.52A1.87,1.87,0,0,1,407.3,196.58Z"/><path class="cls-28" d="M400.61,195.4c6.73-4.72,7.69.73,9.35,1.65-1.44-.38-2.62-2.76-4.29-2.8A20,20,0,0,0,400.61,195.4Z"/><path class="cls-23" d="M407,186.13a8.5,8.5,0,0,0-8,7l-1.39-.26a11.66,11.66,0,0,0,.13-1.68c0-5.4-4-9.8-8.88-9.8s-8.87,4.4-8.87,9.8,4,9.8,8.87,9.8a9,9,0,0,0,8.3-6.33l1.62.3c0,.11,0,.21,0,.31,0,5,3.72,9.15,8.28,9.15s8.28-4.1,8.28-9.15S411.59,186.13,407,186.13ZM388.83,199c-3.8,0-6.9-3.51-6.9-7.83s3.1-7.82,6.9-7.82,6.9,3.51,6.9,7.82S392.64,199,388.83,199ZM407,202.58c-3.55,0-6.44-3.28-6.44-7.31s2.89-7.3,6.44-7.3,6.44,3.28,6.44,7.3S410.57,202.58,407,202.58Z"/><path class="cls-41" d="M364.18,182.6A48.91,48.91,0,0,1,367,199.28c-.83,16.35-18.18,7.82-23,8.16a4.86,4.86,0,0,0-4.4,6.53c.86,3,2.83,3.95,3.86,5.18a3.11,3.11,0,0,1-1.07,5c-3.58,1.79-8-2.27-9.42,2.57a10,10,0,0,0,2.63,10,10.34,10.34,0,0,1-3.74-10.31c.88-4,3.64-3.8,7.45-3.52,2.35.16,3.21-1,3-1.7-.15-1.43-3.43-2-4.84-6.56a7.09,7.09,0,0,1,3.2-8.57c7.95-4.6,25.69,11.94,24.93-12.38A65,65,0,0,0,364.18,182.6Z"/><path class="cls-22" d="M399.1,157.79a20.48,20.48,0,0,1,13.14,5.6c5.57,5.58,7.81,24.3,3.9,27.57s6,9.62-2.25,9.62S391.69,158.56,399.1,157.79Z"/><path class="cls-41" d="M402.94,159.64c10.78,2.71,15,13.25,9.63,21.36-.92,1.37-2.15,2.66-3.79,2.78v-2.32c.61.1,1.76-1.16,2.13-1.64C416.29,173,413,163,402.94,159.64Z"/><path class="cls-42" d="M554.78,295.61c0-6.29-6.06-11.41-13.59-11.44s-13.64,5.06-13.66,11.35,6.06,11.41,13.59,11.44l.84,0c3.2,10.21,6.88,28.06,4.6,36.26a21.37,21.37,0,0,1-8.45,12.07l.6,1a23.24,23.24,0,0,0,10.61-12.34c3.25-8.52,1.69-27.11-.75-38.79C552.29,303.11,554.77,299.6,554.78,295.61Z"/><path class="cls-42" d="M546.53,350.93l-33.43-.11a4.78,4.78,0,0,0-4.8,4.76v1l43,.14v-.95A4.77,4.77,0,0,0,546.53,350.93Z"/><polygon class="cls-43" points="469.21 300.57 469.21 193.26 581.27 199.73 584.79 296.37 469.21 300.57"/><polygon class="cls-44" points="581.27 199.73 584.79 296.37 469.21 300.57 564.48 278.41 581.27 199.73"/><path class="cls-21" d="M743.39,292.94c15.47-26.26,26.8-34.34,26.8-34.34s7.47,41.52-7.72,53.24-20.6,37.83-20.6,37.83,9.16,6.68,7.67,13c-.09.34-4.6,6.18-9.31,4.45-3.56-1.3-7.6-5-12.67-13.26C727.56,353.82,727.91,319.2,743.39,292.94Z"/><path class="cls-45" d="M773.7,261l-3.51-2.37s-22.68,14-30.14,30.83S734.89,312,734.89,312l16.29,13.46s20.46-13.26,24.63-20.72S773.7,261,773.7,261Z"/><path class="cls-46" d="M778.72,447.75c2.48,0,45,11.79,42.63-13.78s-3.63-54.72,10.28-59.91c30-11.21,50.27,1.45,50.27,1.45l-18.5,75.76-27.17,42L797,490l-78,9.17S726.18,447.42,778.72,447.75Z"/><polygon class="cls-47" points="830.94 487.62 842.7 487.69 858.76 645.79 856.59 645.77 830.94 487.62"/><polygon class="cls-47" points="755.65 487.16 743.89 487.08 725.89 644.97 728.06 644.99 755.65 487.16"/><path class="cls-48" d="M884.79,377.15c-.06,9.74-19,100.73-24.29,112-13.29,28.26-59.19,17.67-83.26,17.19-14.89-.3-43.54,8.72-57,1.06s2.18-28.67,34.25-28.47,56.35,16.14,75.52-4.31,16.6-61.14,27.77-85.42S884.79,377.15,884.79,377.15Z"/><path class="cls-21" d="M727.4,437.06l-60.91,18.17a12.06,12.06,0,0,0-8.6,12.45c.94,12.94,3.46,36.09,10,52.63,9.42,23.92,28.3,72.89,28.65,86.09s-3.86,34.74-3.86,34.74l20.81-.55s-1.87-13.26-2.12-22.9-1.59-21.8-1.8-29.41c-.18-6.92-11.33-79.52-10.15-109.73.12-3,40.84-17.89,40.84-17.89Z"/><path class="cls-49" d="M694.5,630.15l-1.85,11s-.38,4.52,3.92,8.82,16.89-5.09,16.89-9.37a78,78,0,0,0-1.32-11.2s-6.56,13.58-10.26,9.88A73.42,73.42,0,0,1,694.5,630.15Z"/><path class="cls-21" d="M770.74,424.27l-67.29,48.88c-7.5,6.33-9.9,24.43-6.18,33.51,5.77,14.09,14.8,34.57,23.13,46.8C734,573.48,757,605.31,757,605.31s7.16,22.41,2.46,27.36a70.79,70.79,0,0,1-10.67,8.92s20.37-.44,23.83-4.09,1.17-18.55,1-23.62a18.68,18.68,0,0,0-2.4-8.69s-2-8.14-5.44-18.65c-4.93-15.24-7.33-39.1-13.69-53.4-10.76-24.16-16.23-23.38-16.23-23.38l65.39-43.25Z"/><path class="cls-50" d="M822.85,317.06C817.33,281,825.6,262.26,812,257s-30.27-2-30.27-2-13.43.45-20.6,12.48C740,302.9,754.9,361,756.49,391.17l69.32-3.37c5.88-.28,6.9-5.36,6.15-11.2C829,353.21,824.93,330.62,822.85,317.06Z"/><path class="cls-51" d="M825.81,387.8l-69.32,3.37c.45,8.48-.16,14.75-2.91,17.68C739.26,424.1,665.83,445.59,660,460c0,0,34.1-5.62,52.07,11.43a93.25,93.25,0,0,1,23.87,38.36s70.63-40.25,88.64-47.42C837.7,457.1,839.76,426.69,825.81,387.8Z"/><path d="M780.59,247a22.84,22.84,0,0,1-22.25,2c-12.66-5.47-20.43-22.14-10.66-42.9s19.21-28.19,19.21-28.19Z"/><path class="cls-52" d="M774.18,177.9s-5.47-.17-7.29,0c-17,1.62-29.09,28.15-21.63,39.89s14.54,5.43,14.6,5.39c-9.93,16.6,8,35.11,18.39,24.77C784.52,241.68,774.18,177.9,774.18,177.9Z"/><path class="cls-21" d="M774.18,231.51s3.2,17.28-.17,28.18c-1.82,5.89-.92,29.89,5.36,30.93,5.32.88,15.83-20.23,18-25.46,4.64-11.4-4.08-38.1-4.08-38.1Z"/><path class="cls-19" d="M793.25,227.06l-19.07,4.45a96.48,96.48,0,0,1,1.19,10.23c.5.16,1,.31,1.54.43,6.58,1.5,13.78-1.69,18.7-6.67C794.38,230.53,793.25,227.06,793.25,227.06Z"/><path class="cls-21" d="M766.89,177.9s-8.17,8.58-6.71,19.25-.3,16.76-.32,20.56,5.68,15.52,17.09,17.88,24.67-8,24.73-17.37-1.49-25.77-8.68-33.05S766.89,177.9,766.89,177.9Z"/><path class="cls-52" d="M766.89,177.9s25,18.24,30.8,29.16-8.2,26.64-7,32.74,21.49,19.74,29.28,12,1.9-19.79,1.9-19.79,14.73.09,13.79-12.1-11-28.7-24.66-36.45C781.82,166.87,766.89,177.9,766.89,177.9Z"/><path class="cls-53" d="M835.56,212.37c-10.66-33.64-51.37-46-68.67-34.47,17.78-9.13,55.69,4.29,66,35.28,1.26,4.3,2.38,9.1.3,12.63s-7,5.12-11.32,5.39l-1.32.07c.06.61,6.94,12.12-.59,20.57,5.28-4.63,5.48-12.5,3.14-19,4.45-.27,9.25-1.59,12.14-5.77S836.93,217.24,835.56,212.37Z"/><path class="cls-21" d="M793.4,204.08s.29-5.91,6.17-4.16,3.34,11.47-.5,12.58S793.4,204.08,793.4,204.08Z"/><path class="cls-47" d="M779.38,221.82c4.49-1,6.37-3,5.77-2.63a.38.38,0,0,1,.53.55c-.6.24-2.56,3.25-12.64,3.6a.38.38,0,0,1,0-.76A50,50,0,0,0,779.38,221.82Z"/><path class="cls-47" d="M778.64,225.28a.41.41,0,0,1-.39-.34.38.38,0,0,1,.34-.42c.83-.09,3.15-.47,3.86-1.22s2.17,1.34-3.78,2Z"/><path class="cls-47" d="M773.73,214.28c.23-1.23,1.09-3.42,2.37-3.14a14,14,0,0,1,3.59,1.6c-1.31-.15-2.52-.71-3.74-.86C775.39,211.49,774.79,212.83,773.73,214.28Z"/><path class="cls-47" d="M767.67,208.19a1.78,1.78,0,1,1-1.81-1.54A1.69,1.69,0,0,1,767.67,208.19Z"/><path class="cls-47" d="M782,206a1.77,1.77,0,1,0,1.4-1.92A1.67,1.67,0,0,0,782,206Z"/><path class="cls-52" d="M762.92,200.5c-2.57.5-2.23,2.21-2.23,2.21a17.85,17.85,0,0,0,2.52-1.18l6.45-.2C769,201.13,765.32,200,762.92,200.5Z"/><path class="cls-52" d="M783.13,197.41c2.6-.3,2.79,1.43,2.79,1.43a18.1,18.1,0,0,1-2.76-.37L777,200.21C777.48,199.83,780.7,197.68,783.13,197.41Z"/><path class="cls-52" d="M779.47,207.77a15.76,15.76,0,0,1,4.11-3.18c1.92-.82,6.75,0,6.75,0a19.84,19.84,0,0,0-5.94-1.1C781.44,203.49,779.47,207.77,779.47,207.77Z"/><path class="cls-52" d="M771.07,210.37a15.76,15.76,0,0,0-4.11-3.18c-1.92-.82-6.75,0-6.75,0a19.84,19.84,0,0,1,5.94-1.1C769.1,206.09,771.07,210.37,771.07,210.37Z"/><path class="cls-19" d="M794.52,206.09s4.3-7,5.88-3.38-.25,7.58-2.94,6.76A4.15,4.15,0,0,1,794.52,206.09Z"/><path class="cls-19" d="M769.66,216c0,1.42-1.87,2.58-4.17,2.58s-4.16-1.16-4.16-2.58,1.86-2.58,4.16-2.58S769.66,214.61,769.66,216Z"/><path class="cls-19" d="M793.55,210c.29,1.39-1.29,2.9-3.54,3.38s-4.32-.26-4.61-1.66,1.29-2.91,3.54-3.38S793.25,208.64,793.55,210Z"/><path class="cls-54" d="M732.63,388.69h3.43c0-16.73,7.67-30.35,17.11-30.35s17.11,13.62,17.11,30.35h3.42c0-18.94-9-33.78-20.53-33.78S732.63,369.75,732.63,388.69Z"/><polygon class="cls-55" points="787.19 382.56 723.92 382.73 718.04 437.35 798.6 437.35 787.19 382.56"/><polygon class="cls-54" points="778.94 382.56 776.6 437.35 798.6 437.35 787.19 382.56 778.94 382.56"/><polygon class="cls-54" points="770.28 388.69 765.13 430.59 720.57 431.73 758.32 426.02 770.28 388.69"/><path class="cls-21" d="M815,258.6s16.5,4.47,37.62,31.85c15.79,20.46,31.8,50.32,32.17,64.09s-67.89,21.78-90.89,12.62c0,0-10.19,9.4-20.2,9.67s-8-2.65-10.72-10.2S769.23,354,776.71,352c2.24-.62,1.89-.89,11.94.87s54.18,4.54,61.22-2.88-19.46-37-25-42.26S803.3,279.87,815,258.6Z"/><path class="cls-56" d="M812,257s-10.13,23.17-4.2,35.88S830,320.16,838,322.58c0,0,20.35-13.64,22.58-21.07S839.34,250.15,812,257Z"/><path class="cls-21" d="M745.42,351.33s6.72.8,8.93,3.66c1.55,2,3.06,7,1.4,10.09s-5.91,2-7.32,3.45-2.21,1.87-4.8,2.39-3.5,1.84-5,1.84-3-3.47-3.59-7.68a13.83,13.83,0,0,1,1.15-7.64S739.44,351.33,745.42,351.33Z"/><path class="cls-49" d="M759.79,632.3s-15.49,10.1-11.36,10.1,23.16.81,25.16-6.51,1.5-18.59,2.16-21.3a6.47,6.47,0,0,0-3.65-7.77s-4.08,11.88-2.76,17.8-5.55,10-9.37,10S759.79,632.3,759.79,632.3Z"/><path class="cls-21" d="M702.21,494.48c-1.71,2.2-1,5.92,2.29,9.21s19.62,4.29,16.07-4.76S704.74,491.22,702.21,494.48Z"/><rect class="cls-30" x="191.98" y="356.4" width="533.02" height="5.65" transform="translate(916.99 718.44) rotate(180)"/><rect class="cls-30" x="191.98" y="356.4" width="533.02" height="5.65" transform="translate(916.99 718.44) rotate(180)"/><rect class="cls-57" x="567.84" y="356.4" width="157.17" height="5.65" transform="translate(1292.84 718.44) rotate(180)"/><rect class="cls-58" x="202.13" y="362.04" width="502.38" height="20.69" transform="translate(906.63 744.78) rotate(180)"/><rect class="cls-59" x="593.94" y="362.04" width="110.56" height="20.69" transform="translate(1298.45 744.78) rotate(180)"/><path class="cls-21" d="M465.43,315.25l-36.81,11.12L416.53,329s-6.23,5.36-8.42,10.33c-2.31,5.27-4,15.36-4,15.36.68-.33,7.83-10.31,8.29-11.05-2,4.33-2.42,12.39,3,4.61-1.12,1.07-2.24,2.51-.46,2.76,2.89.41,9-2.73,12.43-4.42s6.7-9.21,6.7-9.21c10.17,1.08,14.05.45,23.09-.09C479,336,465.43,315.25,465.43,315.25Z"/><path class="cls-34" d="M429.9,322.81l9.22,20.41s25.56-2.93,29.7-7.07c5-5,6.16-9.55-3.39-20.9Z"/><path class="cls-60" d="M313.27,193.43l-.21,0a.66.66,0,0,1-.41-.84c9.13-26.15,24.29-41.6,35.4-50,12.05-9.07,22.1-12,22.2-12a.66.66,0,1,1,.36,1.27c-.09,0-10,2.89-21.82,11.83-11,8.25-25.88,23.49-34.9,49.3A.65.65,0,0,1,313.27,193.43Z"/><path class="cls-60" d="M849.74,237.24l-.15,0a.67.67,0,0,1-.49-.8c6.23-25-4.06-43.26-13.78-54.14a83.29,83.29,0,0,0-23-17.85.66.66,0,0,1-.3-.88.64.64,0,0,1,.87-.3,84.33,84.33,0,0,1,23.33,18.12c10,11.12,20.48,29.75,14.11,55.37A.65.65,0,0,1,849.74,237.24Z"/><rect class="cls-61" x="376.32" y="352.38" width="107.17" height="4.02"/></g></g></svg>