<svg xmlns="http://www.w3.org/2000/svg" viewBox="0 0 369.88 325.3"><title>banner</title><g id="Layer_2" data-name="Layer 2"><g id="OBJECTS"><path d="M284.69,136.82c-8-15.47-24-27.1-38.63-36.44-2.88-1.84-5.27-3.27-7.52-4.5-2.81-1.55-4.76-4.23-5-6.84a6,6,0,0,1,2.64-5.42,5.75,5.75,0,0,1,3.58-1c5.3,0,13.74,4.16,22.11,8.57,1.06.56,2,1.08,2.9,1.51-3.94-7.72-22.27-13.93-33.59-17.75a98.87,98.87,0,0,1-9.47-3.5c-7.82-3.91-6.92-12.76-6.91-12.85a.9.9,0,0,1,.12-.36A117.8,117.8,0,0,0,69.88,194.3c7.16,2.94,12.1,7,14.74,12.08,8,15.47,24,27.1,38.63,36.43,2.88,1.85,5.27,3.28,7.52,4.51,2.81,1.55,4.76,4.23,5,6.84a6,6,0,0,1-2.64,5.41,5.69,5.69,0,0,1-3.58,1c-5.3,0-13.73-4.16-22.11-8.57-1.06-.56-2.05-1.08-2.9-1.51,3.94,7.72,22.27,13.92,33.59,17.75a93.61,93.61,0,0,1,9.47,3.5c7.82,3.91,6.92,12.76,6.91,12.85a1,1,0,0,1-.95.85H153a117.82,117.82,0,0,0,148.15-135.9C293,146.58,287.54,142.32,284.69,136.82Z" fill="#80cbc4"/><path d="M94.89,247.4l.06.08v-.06Z" fill="#8de0ed"/><path d="M274.36,95.78l.93.25-1.51-1.74c.17.33.33.66.49,1A.88.88,0,0,1,274.36,95.78Z" fill="#8de0ed"/><path d="M132.4,255.61c1.72-3.93-6.09-6.24-6.09-6.24a15.65,15.65,0,0,0-2.74,6.24S130.69,259.54,132.4,255.61Z" fill="#de8a71"/><path d="M72,235.25l-.75-.58a1,1,0,0,0,.1,1.29c7.25,6.7,16.58,9.6,23.55,11.44l-1-1.27C87.19,244.3,78.63,241.39,72,235.25Z" fill="#606060"/><path d="M95.13,246.92a.94.94,0,0,1,.46-.33l-1.74-.46,1,1.27.06,0A.92.92,0,0,1,95.13,246.92Z" fill="#606060"/><path d="M70.1,195.47c-.08-.39-.15-.78-.22-1.17q-9.75-4-25-5.29a181.73,181.73,0,0,0-30.3.21,1,1,0,0,0,.2,1.91l1-.09-1.1-.87S49.14,186.51,70.1,195.47Z" fill="#606060"/><path d="M83.77,206.82c8.17,15.79,24.32,27.44,39,36.81,2.49,1.59,5,3.12,7.58,4.54,4,2.19,6.57,7.28,2.2,10.64-4.95,3.8-22.35-6.63-28.55-9.65a7,7,0,0,0,.54,1.35c.85.43,1.84,1,2.9,1.51,8.38,4.41,16.81,8.57,22.11,8.57a5.69,5.69,0,0,0,3.58-1,6,6,0,0,0,2.64-5.41c-.2-2.61-2.15-5.29-5-6.84-2.25-1.23-4.64-2.66-7.52-4.51-14.61-9.33-30.62-21-38.63-36.43C82,201.27,77,197.24,69.88,194.3c.07.39.14.78.22,1.17C76.18,198.06,81.12,201.71,83.77,206.82Z" fill="#606060"/><path d="M93.85,246.13l-1-1.29c-6.38-1.83-14.1-4.68-20.18-10.29a1,1,0,0,0-1.36,0s0,.05,0,.07l.75.58C78.63,241.39,87.19,244.3,93.85,246.13Z" fill="#606060"/><path d="M70.34,196.62l-.24-1.15c-21-9-55.4-5.3-55.4-5.3l1.1.87C21.64,190.53,51.85,188.41,70.34,196.62Z" fill="#606060"/><path d="M96.06,246.55l7,1.16a1,1,0,0,1,.79.79,5.23,5.23,0,0,0,.15.66c6.2,3,23.6,13.45,28.55,9.65,4.37-3.36,1.8-8.45-2.2-10.64-2.59-1.42-5.09-2.95-7.58-4.54-14.64-9.37-30.79-21-39-36.81-2.65-5.11-7.59-8.76-13.67-11.35l.24,1.15c5.6,2.49,10.13,5.93,12.57,10.65,8.22,15.86,24.48,27.69,39.31,37.17,2.91,1.86,5.34,3.31,7.62,4.57s3.82,3.35,4,5.3a4.19,4.19,0,0,1-1.89,3.74c-3.64,2.8-16.64-4.05-23.62-7.73-2.22-1.17-4-2.09-5.07-2.55a47,47,0,0,0-5.52-1.62c-1.48-.38-3.14-.81-4.89-1.31l1,1.29,1.74.46A.94.94,0,0,1,96.06,246.55Z" fill="#606060"/><path d="M144.74,288.82a10.37,10.37,0,0,0-3.26,3.43c4.09,1.66,7.65,3,9.69,3.63C150.65,294.35,149.13,291.39,144.74,288.82Z" fill="#de8a71"/><path d="M148.44,280.74l-1.09,2.37.42.43h4.12A7.59,7.59,0,0,0,148.44,280.74Z" fill="#de8a71"/><path d="M59.4,234.85c3.58,4.09,9,11.49,15.1,19l1.91.81c-3.32-4-6.42-8-9.11-11.48-2.81-3.63-5.24-6.76-7.18-9-8.75-10-44-6.57-45.51-6.42a1,1,0,1,0,.19,1.91l1.81-.15-1.91-.8S50.87,225.1,59.4,234.85Z" fill="#606060"/><path d="M146.84,284.23l.48.21-.39-.41Z" fill="#606060"/><path d="M97.33,250.25c-.8-.91-1.6-1.83-2.38-2.77a.9.9,0,0,0,.09.43c3,6.26,6.61,10.92,15.4,16.22V263C103.09,258.45,99.77,254.58,97.33,250.25Z" fill="#606060"/><path d="M96,247.69l-1-.27v.06c.78.94,1.58,1.86,2.38,2.77C96.87,249.42,96.43,248.57,96,247.69Z" fill="#606060"/><path d="M147.47,284.5l-.15-.06c5.72,6.14,6.39,11.33,5.9,12.55-.1.25-.73.21-1.79-.06a103.52,103.52,0,0,1-10.35-3.8h0c-12-4.88-29.89-12.79-39.43-15.63C92.92,274.9,83,264.26,74.5,253.86l-1.88-.79c8.89,11.05,19.35,22.55,28.74,25.35,7,2.07,18.62,6.95,28.89,11.25,15,6.27,20.46,8.44,22.55,8.44a1.75,1.75,0,0,0,.66-.11,1.15,1.15,0,0,0,.65-.65c.63-1.58-.06-6.29-4.64-11.89H153c-1.06-.3-2.12-.63-3.17-1Z" fill="#606060"/><path d="M154.47,284.61c0-.09.91-8.94-6.91-12.85a93.61,93.61,0,0,0-9.47-3.5c-11.32-3.83-29.65-10-33.59-17.75-.5-.26-.94-.48-1.33-.66,4,11.52,36.89,19.24,44,22.77,7.31,3.66,6.39,11.88,6.39,11.88H149.8c1,.33,2.11.66,3.17,1h.55A1,1,0,0,0,154.47,284.61Z" fill="#606060"/><path d="M102.86,248.66a6.32,6.32,0,0,0,.31,1.19c.39.18.83.4,1.33.66a7,7,0,0,1-.54-1.35C103.54,249,103.17,248.79,102.86,248.66Z" fill="#606060"/><path d="M102.86,248.66a72,72,0,0,0-7.27-2.07.94.94,0,0,0-.46.33.92.92,0,0,0-.18.5l1,.27a1.74,1.74,0,0,0-.1-.19Z" fill="#606060"/><path d="M104,249.16a5.23,5.23,0,0,1-.15-.66,1,1,0,0,0-.79-.79l-7-1.16a.94.94,0,0,0-.47,0,72,72,0,0,1,7.27,2.07C103.17,248.79,103.54,249,104,249.16Z" fill="#606060"/><path d="M110.52,263l-.08,0v1.15c1.57.95,3.3,1.91,5.22,2.91C113.91,265.75,112.19,264.41,110.52,263Z" fill="#606060"/><path d="M146.93,284c-.24-.25-.48-.5-.74-.75-.75-.26-1.51-.54-2.26-.82.4.35.79.69,1.16,1l1.75.73Z" fill="#606060"/><path d="M128.11,271.81A139.33,139.33,0,0,1,110.52,263c1.67,1.39,3.39,2.73,5.14,4,3.38,1.76,7.36,3.62,12.07,5.65a60.89,60.89,0,0,1,16.2,9.77c.75.28,1.51.56,2.26.82C142.37,279.52,136.63,275.48,128.11,271.81Z" fill="#606060"/><path d="M146.93,284l.39.41.15.06h2.33c-.9-.29-1.79-.58-2.68-.89Z" fill="#606060"/><path d="M97.33,250.25c2.44,4.33,5.76,8.2,13.11,12.73v0A118.33,118.33,0,0,1,97.33,250.25Z" fill="#606060"/><path d="M97.23,248,96,247.69c.43.88.87,1.73,1.33,2.56A118.33,118.33,0,0,0,110.44,263v-1.11c-7.55-4.72-10.52-8.66-12.83-13.09l4.44.74c2.44,9.43,22.23,16.12,35.42,20.58a97.66,97.66,0,0,1,9.23,3.4,10.94,10.94,0,0,1,5.9,10.06h-.71a1.75,1.75,0,0,1,.18.32l-4.28-.25-.47-.43-.2.43c.89.31,1.78.6,2.68.89h3.72s.92-8.22-6.39-11.88c-7.07-3.53-40-11.25-44-22.77l-.68-.3A47.73,47.73,0,0,0,97.23,248Z" fill="#606060"/><path d="M151.43,296.93l-10.35-3.8A103.52,103.52,0,0,0,151.43,296.93Z" fill="#606060"/><path d="M101.64,277.49c9.54,2.84,27.43,10.75,39.43,15.63a8.65,8.65,0,0,1,.41-.87c-3.32-1.35-7-2.89-10.49-4.35-10.31-4.33-22-9.22-29.08-11.33-8-2.39-17.42-12.16-25.5-21.9l-1.91-.81C83,264.26,92.92,274.9,101.64,277.49Z" fill="#606060"/><path d="M146.52,284.93c5,5.27,6,9.7,5.88,11.25a11.08,11.08,0,0,1-1.23-.3,5.29,5.29,0,0,1,.26,1.05c1.06.27,1.69.31,1.79.06.49-1.22-.18-6.41-5.9-12.55l-.48-.21Z" fill="#606060"/><path d="M59.4,234.85c-8.53-9.75-44.7-6.09-44.7-6.09l1.91.8a165.63,165.63,0,0,1,17.23-.45c12.94.39,21.53,2.59,24.83,6.37,1.9,2.17,4.31,5.28,7.11,8.88,2.13,2.75,4.42,5.71,6.84,8.71l1.88.79C68.36,246.34,63,238.94,59.4,234.85Z" fill="#606060"/><path d="M141.48,292.25a8.65,8.65,0,0,0-.41.87h0l10.35,3.8a5.29,5.29,0,0,0-.26-1.05C149.13,295.29,145.57,293.91,141.48,292.25Z" fill="#606060"/><path d="M141.07,293.12h0Z" fill="#606060"/><path d="M147.35,283.11l0,.07.47.43,4.28.25a1.75,1.75,0,0,0-.18-.32h-4.12Z" fill="#606060"/><path d="M95.9,247.5a1.74,1.74,0,0,1,.1.19l1.23.32a47.73,47.73,0,0,1,5.26,1.54l.68.3a6.32,6.32,0,0,1-.31-1.19Z" fill="#606060"/><path d="M145.09,283.5c.51.48,1,1,1.43,1.43l.32-.7Z" fill="#606060"/><path d="M110.44,263l.08,0-.08-.06Z" fill="#606060"/><path d="M146.93,284l.19-.42-.93-.33C146.45,283.53,146.69,283.78,146.93,284Z" fill="#606060"/><path d="M146.19,283.28l.93.33.2-.43-3.81-3.47h.07a65.46,65.46,0,0,0-15.09-8.79,136.18,136.18,0,0,1-18.05-9.07V263l.08.06a139.33,139.33,0,0,0,17.59,8.79C136.63,275.48,142.37,279.52,146.19,283.28Z" fill="#606060"/><path d="M143.58,279.71h-.07l3.81,3.47,0-.07A41.79,41.79,0,0,0,143.58,279.71Z" fill="#606060"/><path d="M236.91,87.59c-1.72,3.93,6.09,6.24,6.09,6.24a15.71,15.71,0,0,0,2.74-6.24S238.62,83.65,236.91,87.59Z" fill="#de8a71"/><path d="M297.32,107.94l.75.59a1,1,0,0,0-.1-1.29c-7-6.43-15.82-9.36-22.68-11.21.37.43.74.86,1.1,1.3C282.9,99.17,291,102.1,297.32,107.94Z" fill="#606060"/><path d="M274.18,96.28a1,1,0,0,1-.46.33l2.67.72c-.36-.44-.73-.87-1.1-1.3l-.93-.25A.92.92,0,0,1,274.18,96.28Z" fill="#606060"/><path d="M355.56,152.92a1,1,0,0,0-1.05-.85l-1,.09,1.1.87s-32.64,3.46-53.71-4.62c.08.38.15.77.22,1.15q9.36,3.47,23.29,4.63a181.68,181.68,0,0,0,30.3-.21A1,1,0,0,0,355.56,152.92Z" fill="#606060"/><path d="M285.54,136.37c-8.17-15.79-24.32-27.43-39-36.8-2.49-1.59-5-3.12-7.58-4.54-4-2.19-6.57-7.28-2.2-10.64,4.95-3.81,22.35,6.63,28.55,9.64a7.23,7.23,0,0,0-.54-1.34c-.85-.43-1.84-1-2.9-1.51-8.37-4.41-16.81-8.57-22.11-8.57a5.75,5.75,0,0,0-3.58,1A6,6,0,0,0,233.58,89c.2,2.61,2.15,5.29,5,6.84,2.25,1.23,4.64,2.66,7.52,4.5,14.61,9.34,30.62,21,38.63,36.44,2.85,5.5,8.35,9.76,16.43,12.74-.07-.38-.14-.77-.22-1.15C294.06,145.79,288.43,142,285.54,136.37Z" fill="#606060"/><path d="M300.65,147.28c.08.38.17.75.25,1.13C322,156.49,354.61,153,354.61,153l-1.1-.87C347.84,152.65,319.24,154.66,300.65,147.28Z" fill="#606060"/><path d="M276.39,97.33l1.05,1.31c6.19,1.83,13.45,4.68,19.23,10a1,1,0,0,0,1.36-.05s0,0,0-.07l-.75-.59C291,102.1,282.9,99.17,276.39,97.33Z" fill="#606060"/><path d="M286.4,135.93c-8.22-15.87-24.48-27.69-39.3-37.17-2.92-1.86-5.35-3.32-7.63-4.57s-3.82-3.35-4-5.3a4.19,4.19,0,0,1,1.89-3.74c3.64-2.8,16.64,4,23.62,7.73,2.22,1.17,4,2.09,5.07,2.55a47,47,0,0,0,5.52,1.62c1.75.45,3.73,1,5.84,1.59l-1.05-1.31-2.67-.72a.94.94,0,0,1-.47,0l-6.95-1.16a1,1,0,0,1-.79-.79c0-.22-.1-.45-.16-.67-6.2-3-23.6-13.45-28.55-9.64C232.43,87.75,235,92.84,239,95c2.59,1.42,5.09,3,7.58,4.54,14.64,9.37,30.79,21,39,36.8,2.89,5.58,8.52,9.42,15.36,12-.08-.38-.17-.75-.25-1.13C294.28,144.75,289.08,141.12,286.4,135.93Z" fill="#606060"/><path d="M224.57,54.38A10.37,10.37,0,0,0,227.83,51c-4.09-1.66-7.65-3-9.69-3.63C218.66,48.85,220.18,51.81,224.57,54.38Z" fill="#de8a71"/><path d="M221.54,59.66H220l1.86.59.07-.16Z" fill="#de8a71"/><path d="M220.87,62.46l1-2.21L220,59.66h-2.61A7.59,7.59,0,0,0,220.87,62.46Z" fill="#de8a71"/><path d="M309.91,108.35c-3.58-4.1-9-11.49-15.1-19l-1.91-.8c3.32,4,6.42,8,9.11,11.48s5.24,6.76,7.18,9c8.75,10,44,6.57,45.51,6.42a1,1,0,0,0-.19-1.91l-1.81.15,1.91.8S318.44,118.1,309.91,108.35Z" fill="#606060"/><path d="M222.47,59l-.48-.2.39.41Z" fill="#606060"/><path d="M259.4,80.56c5.94,3.73,9.16,7,11.45,10.53,1,1,2,2.12,2.93,3.2-2.92-5.76-6.59-10.21-14.91-15.22v1.06Z" fill="#606060"/><path d="M273.31,95.5l1.05.28a.88.88,0,0,0-.09-.5c-.16-.33-.32-.66-.49-1-1-1.08-1.93-2.15-2.93-3.2A40.36,40.36,0,0,1,273.31,95.5Z" fill="#606060"/><path d="M259.4,80.56l-.53-.43v.09Z" fill="#606060"/><path d="M221.84,58.7l.15.06c-5.72-6.15-6.39-11.33-5.9-12.55.1-.25.73-.21,1.79.06a103.52,103.52,0,0,1,10.35,3.8h0c12,4.88,29.89,12.79,39.43,15.62,8.72,2.59,18.66,13.24,27.14,23.63l1.88.8c-8.89-11-19.35-22.55-28.74-25.35-7-2.07-18.62-7-28.88-11.25-15-6.27-20.47-8.44-22.55-8.44a1.76,1.76,0,0,0-.67.11,1.18,1.18,0,0,0-.65.65c-.63,1.58.06,6.29,4.64,11.89h-4.05a1,1,0,0,0-.83.49l1.74.47Z" fill="#606060"/><path d="M221.75,71.44a98.87,98.87,0,0,0,9.47,3.5c11.32,3.82,29.65,10,33.59,17.75l1.34.66c-4-11.53-36.9-19.24-44-22.77-7.31-3.66-6.39-11.88-6.39-11.88h.91L215,58.23a.9.9,0,0,0-.12.36C214.83,58.68,213.93,67.53,221.75,71.44Z" fill="#606060"/><path d="M266.15,93.35l-1.34-.66a7.23,7.23,0,0,1,.54,1.34c.42.21.79.38,1.1.51A7.15,7.15,0,0,0,266.15,93.35Z" fill="#606060"/><path d="M266.45,94.54a72,72,0,0,0,7.27,2.07,1,1,0,0,0,.46-.33.92.92,0,0,0,.18-.5l-1.05-.28a1.24,1.24,0,0,0,.1.2Z" fill="#606060"/><path d="M266.3,95.49l6.95,1.16a.94.94,0,0,0,.47,0,72,72,0,0,1-7.27-2.07c-.31-.13-.68-.3-1.1-.51.06.22.12.45.16.67A1,1,0,0,0,266.3,95.49Z" fill="#606060"/><path d="M258.87,80.13V79.07c-1.63-1-3.44-2-5.46-3Q256.2,78,258.87,80.13Z" fill="#606060"/><path d="M222.38,59.17c.6.63,1.27,1.27,2,1.91.84.29,1.67.59,2.5.9q-1.44-1.15-2.64-2.28L222.47,59Z" fill="#606060"/><path d="M241.2,71.39a141.26,141.26,0,0,1,17.67,8.83v-.09Q256.2,78,253.41,76c-3.33-1.72-7.23-3.54-11.83-5.52A64.39,64.39,0,0,1,226.86,62c-.83-.31-1.66-.61-2.5-.9A60.85,60.85,0,0,0,241.2,71.39Z" fill="#606060"/><path d="M270.85,91.09c-2.29-3.5-5.51-6.8-11.45-10.53A117.68,117.68,0,0,1,270.85,91.09Z" fill="#606060"/><path d="M221.52,59.59,222,60l.39-.85-.39-.41-.15-.06H216.7c.89.24,1.79.5,2.67.76Z" fill="#606060"/><path d="M272.08,95.19l1.23.31a40.36,40.36,0,0,0-2.46-4.41A117.68,117.68,0,0,0,259.4,80.56l-.53-.34v1.13c7.55,4.72,10.52,8.66,12.83,13.09l-4.44-.74c-2.44-9.43-22.22-16.12-35.42-20.59a95.46,95.46,0,0,1-9.23-3.39,10.94,10.94,0,0,1-5.9-10.06h.71a2.25,2.25,0,0,1-.18-.32l2.13.12c-.88-.26-1.78-.52-2.67-.76h-.91s-.92,8.22,6.39,11.88c7.07,3.53,40,11.24,44,22.77l.67.3A47.73,47.73,0,0,0,272.08,95.19Z" fill="#606060"/><path d="M217.88,46.27l10.35,3.8A103.52,103.52,0,0,0,217.88,46.27Z" fill="#606060"/><path d="M267.67,65.7c-9.54-2.83-27.43-10.74-39.43-15.62a8.65,8.65,0,0,1-.41.87c3.32,1.35,7,2.89,10.49,4.35,10.31,4.32,22,9.22,29.08,11.33,8,2.39,17.42,12.16,25.5,21.9l1.91.8C286.33,78.94,276.39,68.29,267.67,65.7Z" fill="#606060"/><path d="M222.79,58.26c-5-5.26-6-9.69-5.88-11.24a11.08,11.08,0,0,1,1.23.3,5.29,5.29,0,0,1-.26-1c-1.06-.27-1.69-.31-1.79-.06-.49,1.22.18,6.4,5.9,12.55l.48.2Z" fill="#606060"/><path d="M309.91,108.35c8.53,9.75,44.7,6.09,44.7,6.09l-1.91-.8a165.63,165.63,0,0,1-17.23.45c-12.94-.39-21.53-2.6-24.83-6.37-1.9-2.17-4.31-5.28-7.11-8.89-2.12-2.74-4.42-5.71-6.84-8.7l-1.88-.8C301,96.86,306.33,104.25,309.91,108.35Z" fill="#606060"/><path d="M227.83,51a8.65,8.65,0,0,0,.41-.87h0l-10.35-3.8a5.29,5.29,0,0,0,.26,1C220.18,47.91,223.74,49.29,227.83,51Z" fill="#606060"/><path d="M228.24,50.08h0Z" fill="#606060"/><path d="M221.54,59.66l.42.43,0-.07-.47-.43-2.15-.13.66.2Z" fill="#606060"/><path d="M219.37,59.46l-2.13-.12a2.25,2.25,0,0,0,.18.32H220Z" fill="#606060"/><path d="M273.41,95.7a1.24,1.24,0,0,1-.1-.2l-1.23-.31a47.73,47.73,0,0,1-5.26-1.54l-.67-.3a7.15,7.15,0,0,1,.3,1.19Z" fill="#606060"/><path d="M224.22,59.7c-.51-.49-1-1-1.43-1.44l-.32.7Z" fill="#606060"/><path d="M224.36,61.08c-.71-.64-1.38-1.28-2-1.91L222,60l.45.41Z" fill="#606060"/><path d="M224.36,61.08l-1.92-.65,3.36,3.06h-.07a65.47,65.47,0,0,0,15.09,8.78,136,136,0,0,1,18.05,9.08V80.22a141.26,141.26,0,0,0-17.67-8.83A60.85,60.85,0,0,1,224.36,61.08Z" fill="#606060"/><path d="M222.23,60.36l.21.07L222,60l0,.07Z" fill="#606060"/><path d="M225.73,63.49h.07l-3.36-3.06-.21-.07A42.77,42.77,0,0,0,225.73,63.49Z" fill="#606060"/><path d="M185.65,144.24s-18-44.46-59.42-24.8-20.52,82.51,59.42,130Z" fill="#de8a71"/><path d="M185.48,144.24s18-44.46,59.42-24.8,20.52,82.51-59.42,130Z" fill="#d67760"/><path d="M93.89,130.41a1.83,1.83,0,0,0-1.82-1.82h-12a1.83,1.83,0,0,1-1.82-1.82v-12A1.83,1.83,0,0,0,76.47,113H68.14a1.83,1.83,0,0,0-1.82,1.82v12a1.83,1.83,0,0,1-1.82,1.82h-12a1.82,1.82,0,0,0-1.81,1.82v8.33a1.82,1.82,0,0,0,1.81,1.82h12a1.83,1.83,0,0,1,1.82,1.82v12a1.82,1.82,0,0,0,1.82,1.81h8.33a1.82,1.82,0,0,0,1.82-1.81v-12a1.83,1.83,0,0,1,1.82-1.82h12a1.83,1.83,0,0,0,1.82-1.82Z" fill="none" stroke="#de8a71" stroke-miterlimit="10" stroke-width="1.28"/><path d="M184.9,53a1.83,1.83,0,0,0-1.82-1.82h-6.33a1.82,1.82,0,0,1-1.81-1.82V43a1.82,1.82,0,0,0-1.82-1.81h-4A1.82,1.82,0,0,0,167.29,43v6.33a1.82,1.82,0,0,1-1.81,1.82h-6.33A1.83,1.83,0,0,0,157.33,53v4a1.83,1.83,0,0,0,1.82,1.82h6.33a1.81,1.81,0,0,1,1.81,1.81v6.33a1.83,1.83,0,0,0,1.82,1.82h4a1.83,1.83,0,0,0,1.82-1.82V60.59a1.81,1.81,0,0,1,1.81-1.81h6.33A1.83,1.83,0,0,0,184.9,57Z" fill="#606060"/><path d="M241.81,255.36a1.82,1.82,0,0,0-1.81-1.82h-6.33a1.83,1.83,0,0,1-1.82-1.82v-6.33a1.83,1.83,0,0,0-1.82-1.82h-4a1.82,1.82,0,0,0-1.81,1.82v6.33a1.83,1.83,0,0,1-1.82,1.82h-6.33a1.83,1.83,0,0,0-1.82,1.82v4a1.83,1.83,0,0,0,1.82,1.82h6.33a1.83,1.83,0,0,1,1.82,1.82v6.33a1.82,1.82,0,0,0,1.81,1.82h4a1.83,1.83,0,0,0,1.82-1.82V263a1.83,1.83,0,0,1,1.82-1.82H240a1.82,1.82,0,0,0,1.81-1.82Z" fill="none" stroke="#de8a71" stroke-miterlimit="10" stroke-width="1.28"/><path d="M87.4,59.71a2.1,2.1,0,0,0-2.31-1.77,2.32,2.32,0,0,1-2.31-2.31,1.84,1.84,0,1,0-3.55,0,2.32,2.32,0,0,1-2.31,2.31,2.1,2.1,0,0,0-2.31,1.77,2.1,2.1,0,0,0,2.31,1.77,2.32,2.32,0,0,1,2.31,2.32,1.84,1.84,0,1,0,3.55,0,2.32,2.32,0,0,1,2.31-2.32A2.1,2.1,0,0,0,87.4,59.71Z" fill="#de8a71"/><path d="M327,77.1a2.1,2.1,0,0,0-2.31-1.77A2.32,2.32,0,0,1,322.4,73a1.84,1.84,0,1,0-3.55,0,2.32,2.32,0,0,1-2.31,2.31,1.83,1.83,0,1,0,0,3.54,2.32,2.32,0,0,1,2.31,2.32,1.84,1.84,0,1,0,3.55,0,2.32,2.32,0,0,1,2.31-2.32A2.1,2.1,0,0,0,327,77.1Z" fill="none" stroke="#80cbc4" stroke-miterlimit="10"/><path d="M327,225.87a1.81,1.81,0,0,0-1.82-1.78h-1a1.82,1.82,0,0,1-1.82-1.81v-1a1.78,1.78,0,1,0-3.55,0v1a1.82,1.82,0,0,1-1.81,1.81h-1a1.78,1.78,0,1,0,0,3.55h1a1.82,1.82,0,0,1,1.81,1.82v1a1.78,1.78,0,1,0,3.55,0v-1a1.83,1.83,0,0,1,1.82-1.82h1A1.8,1.8,0,0,0,327,225.87Z" fill="#80cbc4"/><path d="M126.17,318.9a1.79,1.79,0,0,0-1.81-1.77h-1a1.83,1.83,0,0,1-1.82-1.82v-1a1.78,1.78,0,1,0-3.55,0v1a1.82,1.82,0,0,1-1.81,1.82h-1a1.77,1.77,0,1,0,0,3.54h1a1.82,1.82,0,0,1,1.81,1.82v1a1.78,1.78,0,1,0,3.55,0v-1a1.83,1.83,0,0,1,1.82-1.82h1A1.79,1.79,0,0,0,126.17,318.9Z" fill="#80cbc4"/><polyline points="53.06 177.58 151.69 177.58 163.24 144.66 187.6 219.47 200 175.87 310.72 175.87" fill="none" stroke="#f4f2f2" stroke-linecap="round" stroke-linejoin="round" stroke-width="1.92"/><path d="M139.18,88a3.7,3.7,0,1,1-3.7-3.7A3.7,3.7,0,0,1,139.18,88Z" fill="none" stroke="#606060" stroke-miterlimit="10" stroke-width="1.28"/><path d="M275.08,202a3.7,3.7,0,1,1-3.69-3.7A3.69,3.69,0,0,1,275.08,202Z" fill="none" stroke="#606060" stroke-miterlimit="10" stroke-width="1.28"/><path d="M71.51,286a3.7,3.7,0,1,1-3.7-3.69A3.69,3.69,0,0,1,71.51,286Z" fill="none" stroke="#de8a71" stroke-miterlimit="10" stroke-width="1.28"/><path d="M271.41,38.23a3.7,3.7,0,1,1-3.7-3.7A3.7,3.7,0,0,1,271.41,38.23Z" fill="none" stroke="#80cbc4" stroke-miterlimit="10" stroke-width="1.28"/><path d="M131.27,32.86v4.86a.51.51,0,0,0,1,0V32.86a4.36,4.36,0,0,1-.51,0A4.24,4.24,0,0,1,131.27,32.86Z" fill="#606060"/><path d="M132.29,22.45V17.6a.51.51,0,1,0-1,0v4.85a4.24,4.24,0,0,1,.51,0A4.36,4.36,0,0,1,132.29,22.45Z" fill="#606060"/><path d="M126.57,27.14h-4.85a.52.52,0,1,0,0,1h4.85a4.36,4.36,0,0,1,0-.51A4.41,4.41,0,0,1,126.57,27.14Z" fill="#606060"/><path d="M141.84,27.14H137c0,.17,0,.34,0,.52s0,.34,0,.51h4.85a.52.52,0,0,0,0-1Z" fill="#606060"/><path d="M127.73,31l-3.43,3.44a.51.51,0,0,0,0,.72.51.51,0,0,0,.37.15.51.51,0,0,0,.36-.15l3.43-3.43A5.59,5.59,0,0,1,127.73,31Z" fill="#606060"/><path d="M135.82,24.34l3.44-3.43a.52.52,0,0,0-.73-.73l-3.43,3.43A5,5,0,0,1,135.82,24.34Z" fill="#606060"/><path d="M135.1,31.7l3.43,3.43a.51.51,0,0,0,.36.15.53.53,0,0,0,.37-.15.51.51,0,0,0,0-.72L135.82,31A5,5,0,0,1,135.1,31.7Z" fill="#606060"/><path d="M128.46,23.61,125,20.18a.52.52,0,1,0-.73.73l3.43,3.43A5.59,5.59,0,0,1,128.46,23.61Z" fill="#606060"/><path d="M10.38,167.11V172a.52.52,0,1,0,1,0v-4.85a4.41,4.41,0,0,1-.52,0Z" fill="#fff" stroke="#80cbc4" stroke-miterlimit="10" stroke-width="0.64"/><path d="M11.41,156.69v-4.85a.52.52,0,0,0-1,0v4.85l.51,0Z" fill="#fff" stroke="#80cbc4" stroke-miterlimit="10" stroke-width="0.64"/><path d="M5.69,161.39H.83a.52.52,0,0,0,0,1H5.69a4.41,4.41,0,0,1,0-.52A4.36,4.36,0,0,1,5.69,161.39Z" fill="#fff" stroke="#80cbc4" stroke-miterlimit="10" stroke-width="0.64"/><path d="M21,161.39H16.1a4.36,4.36,0,0,1,0,.51,4.41,4.41,0,0,1,0,.52H21a.52.52,0,0,0,0-1Z" fill="#fff" stroke="#80cbc4" stroke-miterlimit="10" stroke-width="0.64"/><path d="M6.85,165.22l-3.43,3.43a.52.52,0,0,0,0,.73.51.51,0,0,0,.72,0L7.58,166A5,5,0,0,1,6.85,165.22Z" fill="#fff" stroke="#80cbc4" stroke-miterlimit="10" stroke-width="0.64"/><path d="M14.94,158.58l3.43-3.43a.51.51,0,0,0-.72-.72l-3.44,3.43A5.52,5.52,0,0,1,14.94,158.58Z" fill="#fff" stroke="#80cbc4" stroke-miterlimit="10" stroke-width="0.64"/><path d="M14.21,166l3.44,3.43a.51.51,0,0,0,.72,0,.52.52,0,0,0,0-.73l-3.43-3.43A5,5,0,0,1,14.21,166Z" fill="#fff" stroke="#80cbc4" stroke-miterlimit="10" stroke-width="0.64"/><path d="M7.58,157.86l-3.44-3.43a.51.51,0,0,0-.72.72l3.43,3.43A5.52,5.52,0,0,1,7.58,157.86Z" fill="#fff" stroke="#80cbc4" stroke-miterlimit="10" stroke-width="0.64"/><path d="M358.47,197.85v4.85a.52.52,0,1,0,1,0v-4.85a4.36,4.36,0,0,1-.51,0A4.41,4.41,0,0,1,358.47,197.85Z" fill="none" stroke="#de8a71" stroke-miterlimit="10" stroke-width="0.64"/><path d="M359.5,187.43v-4.85a.52.52,0,0,0-1,0v4.85l.52,0Z" fill="none" stroke="#de8a71" stroke-miterlimit="10" stroke-width="0.64"/><path d="M353.78,192.13h-4.86a.52.52,0,0,0,0,1h4.86a4.53,4.53,0,0,1,0-.52A4.36,4.36,0,0,1,353.78,192.13Z" fill="none" stroke="#de8a71" stroke-miterlimit="10" stroke-width="0.64"/><path d="M369.05,192.13h-4.86a4.36,4.36,0,0,1,0,.51,4.53,4.53,0,0,1,0,.52h4.86a.52.52,0,0,0,0-1Z" fill="none" stroke="#de8a71" stroke-miterlimit="10" stroke-width="0.64"/><path d="M354.94,196l-3.43,3.43a.52.52,0,0,0,0,.73.51.51,0,0,0,.72,0l3.44-3.43A5.59,5.59,0,0,1,354.94,196Z" fill="none" stroke="#de8a71" stroke-miterlimit="10" stroke-width="0.64"/><path d="M363,189.32l3.43-3.43a.52.52,0,0,0,0-.73.51.51,0,0,0-.72,0l-3.44,3.44A5,5,0,0,1,363,189.32Z" fill="none" stroke="#de8a71" stroke-miterlimit="10" stroke-width="0.64"/><path d="M362.3,196.69l3.44,3.43a.51.51,0,0,0,.72,0,.52.52,0,0,0,0-.73L363,196A5.59,5.59,0,0,1,362.3,196.69Z" fill="none" stroke="#de8a71" stroke-miterlimit="10" stroke-width="0.64"/><path d="M355.67,188.6l-3.44-3.44a.51.51,0,0,0-.72,0,.52.52,0,0,0,0,.73l3.43,3.43A5,5,0,0,1,355.67,188.6Z" fill="none" stroke="#de8a71" stroke-miterlimit="10" stroke-width="0.64"/><path d="M279.45,282v7.26a.77.77,0,0,0,1.54,0V282c-.26,0-.51,0-.77,0S279.7,282,279.45,282Z" fill="#606060"/><path d="M281,266.36V259.1a.77.77,0,0,0-1.54,0v7.26c.25,0,.51,0,.77,0S280.73,266.34,281,266.36Z" fill="#606060"/><path d="M272.42,273.39h-7.26a.77.77,0,1,0,0,1.54h7.26c0-.25,0-.51,0-.77S272.4,273.64,272.42,273.39Z" fill="#606060"/><path d="M295.28,273.39H288c0,.25,0,.51,0,.77s0,.52,0,.77h7.26a.77.77,0,0,0,0-1.54Z" fill="#606060"/><path d="M274.16,279.13,269,284.27a.76.76,0,1,0,1.08,1.08l5.14-5.13A8.63,8.63,0,0,1,274.16,279.13Z" fill="#606060"/><path d="M286.27,269.19l5.14-5.13a.77.77,0,1,0-1.09-1.09l-5.13,5.14A7.87,7.87,0,0,1,286.27,269.19Z" fill="#606060"/><path d="M285.19,280.22l5.13,5.13a.76.76,0,0,0,1.09,0,.76.76,0,0,0,0-1.08l-5.14-5.14A8.55,8.55,0,0,1,285.19,280.22Z" fill="#606060"/><path d="M275.25,268.11,270.11,263a.76.76,0,0,0-1.08,0,.77.77,0,0,0,0,1.09l5.13,5.13A8,8,0,0,1,275.25,268.11Z" fill="#606060"/><path d="M224.13.74c-5.92-2.8-8.61,3.19-8.81,3.65-.2-.46-2.89-6.45-8.8-3.65C200.37,3.66,203.47,13,215.31,20v0h0v0C227.18,13,230.28,3.66,224.13.74Z" fill="#d67760"/><path d="M207.84,307.87c-3-1.4-4.31,1.59-4.41,1.83-.1-.24-1.44-3.23-4.4-1.83s-1.52,6.12,4.4,9.63h0C209.36,314,210.91,309.33,207.84,307.87Z" fill="#d67760"/></g></g></svg>